<svg xmlns="http://www.w3.org/2000/svg" xmlns:xlink="http://www.w3.org/1999/xlink" width="190" height="190" viewBox="0 0 190 190"><defs><path id="a" d="M.688.848h5.065v27.355H.688V.848z"/><path id="c" d="M122.608.385v10.693H0V.385z"/></defs><g fill="none" fill-rule="evenodd"><circle cx="95" cy="95" r="95" fill="#FFF"/><path fill="#1E2946" stroke="#FFF" d="M43.4817 103.2042h24.192c-.1578-1.7144-.142-3.423.0115-5.111H43.4817c-1.398 0-2.5323 1.1448-2.5323 2.5554 0 1.4107 1.1344 2.5556 2.5323 2.5556m79.2816 0h24.364c1.398 0 2.5325-1.145 2.5325-2.5556s-1.1345-2.5555-2.5324-2.5555h-24.357c.1535 1.7013.1535 3.41-.007 5.1112m-40.423-27.296c.7422-.3944 1.5005-.7668 2.2906-1.0968.7857-.33 1.583-.612 2.3862-.8645l-6.823-16.6258c-.5367-1.304-2.0142-1.9218-3.3093-1.383-1.2923.5404-1.906 2.0357-1.3705 3.3398l6.8258 16.63zm30.5477-11.6705c.5356-1.304-.078-2.7995-1.3702-3.3383-1.2865-.5403-2.774.0774-3.308 1.383l-4.7854 11.659c1.625.5068 3.1835 1.1742 4.674 1.9642l4.7897-11.668zm-55.643 23.258l11.5692 4.8367c.502-1.6297 1.152-3.2112 1.9376-4.7226L59.184 82.7746c-1.2907-.5403-2.7725.0774-3.3094 1.3815-.5354 1.3042.0782 2.7995 1.3704 3.3398m77.3194-3.3393c-.537-1.304-2.0158-1.9217-3.3095-1.383l-11.565 4.8352c.3908.7506.7612 1.5173 1.0868 2.3132.3256.7928.605 1.5975.8552 2.408l11.562-4.8337c1.2922-.5403 1.9058-2.0357 1.3704-3.3398"/><g transform="translate(91.882 44.612)"><mask id="b" fill="#fff"><use xlink:href="#a"/></mask><path fill="#1E2946" stroke="#FFF" d="M5.753 28.1923V3.4033C5.753 1.9928 4.6187.848 3.2208.848 1.823.848.6884 1.9926.6884 3.4033v24.799c.8668-.083 1.738-.1298 2.6134-.1298.8248 0 1.641.048 2.4513.1197" mask="url(#b)"/></g><path fill="#1E2946" stroke="#FFF" d="M73.9187 82.8125c1.0694-1.3085 2.2545-2.5293 3.5612-3.6348L60.0732 61.689c-.9913-.9945-2.5946-.9916-3.5815.0087-.987 1.0004-.9826 2.617.0072 3.6143l17.4197 17.5005zm42.6635.0442l17.4515-17.4347c.9942-.9945 1.0014-2.6125.0174-3.6158-.9825-1.0003-2.5858-1.009-3.5814-.0175l-17.4602 17.445c1.2893 1.0937 2.4933 2.297 3.5728 3.623m1.2802 25.0636c1.6627-5.228 1.5845-11.0473-.6555-16.5045-3.6973-9.0087-12.3392-14.8295-22.017-14.8295-3.123 0-6.1776.6147-9.079 1.8283-11.6604 4.8745-17.421 18.0787-13.378 29.9686 1.4876.9025 3.6813 1.8327 6.4394 1.9846-.4775-.8017-.9-1.6443-1.2618-2.5264-3.9534-9.6337.5947-20.716 10.1366-24.7042 2.2864-.955 4.6885-1.4398 7.1427-1.4398 7.6216 0 14.427 4.5824 17.337 11.6737 2.3487 5.7187 1.6787 11.9368-1.2342 16.8902 2.1517-.3023 4.347-1.0777 6.5696-2.341m19.9267 17.034c-14.964 11.088-25.594.7097-26.0426.257-.411-.4162-.9304-.65-1.4673-.72-.0187-.003-.039-.003-.0578-.0058-.1114-.0117-.2214-.022-.3343-.019-.5224-.0014-1.0492.152-1.5035.4878-14.9568 11.0896-25.5884.7097-26.0384.257-.4094-.4148-.926-.647-1.4615-.7185-.023-.0044-.0477-.0044-.0723-.0073-.1085-.0117-.2142-.022-.324-.019-.521-.0014-1.0478.152-1.5022.4878-14.9626 11.088-25.5927.7097-26.0427.257-.9826-.9945-2.5787-1.0033-3.5742-.016-.9955.99-1.0057 2.608-.0245 3.6142.0926.095 6.364 6.3422 16.068 6.3422 4.3717 0 9.448-1.2983 14.9627-4.971 2.463 1.865 7.5898 4.971 14.4387 4.971 4.3715 0 9.4478-1.2983 14.9625-4.971 2.463 1.8634 7.5898 4.971 14.4402 4.971 4.7956 0 10.4304-1.5275 16.5703-6.078 1.1287-.8352 1.3704-2.4342.5426-3.5718-.8277-1.1376-2.4122-1.383-3.5395-.5476"/><g transform="translate(34 108.866)"><mask id="d" fill="#fff"><use xlink:href="#c"/></mask><path fill="#1E2946" stroke="#FFF" d="M122.117 1.4282c-.8292-1.1376-2.4122-1.383-3.5395-.5476-14.9626 11.0882-25.594.7097-26.0427.257-.4095-.4147-.926-.6484-1.4615-.7185-.0246-.0043-.0478-.0043-.0724-.0072-.1086-.0117-.2143-.022-.3242-.019-.521-.0014-1.0477.152-1.502.4878-14.9627 11.0882-25.5942.7097-26.0428.257-.4095-.4147-.926-.6484-1.4615-.7185-.0275-.0043-.0536-.0057-.0796-.0087C61.4866.4 61.3824.39 61.2782.3928c-.5238-.0014-1.0534.1504-1.5078.4878-14.9438 11.078-25.5724.7272-26.0398.2584-.4096-.416-.9276-.6498-1.463-.7213-.0203-.003-.042-.003-.0622-.006-.1115-.0116-.2214-.0218-.3343-.019-.521 0-1.0462.1535-1.4992.488-14.948 11.0764-25.5767.727-26.0427.2583C3.3468.1402 1.7478.133.7536 1.1215-.242 2.1115-.252 3.7297.729 4.7358c.094.095 6.3642 6.3422 16.0682 6.3422 4.373 0 9.4493-1.2983 14.964-4.971 2.463 1.8634 7.5898 4.971 14.4388 4.971 4.373 0 9.4478-1.2983 14.961-4.9724 2.463 1.8648 7.59 4.9724 14.4403 4.9724 4.3716 0 9.4478-1.2983 14.9626-4.971 2.4628 1.865 7.5897 4.971 14.4386 4.971 4.7956 0 10.432-1.5275 16.5718-6.078 1.1272-.8352 1.3703-2.4342.5426-3.5718" mask="url(#d)"/></g><path fill="#4F67AF" d="M95.2 107.8825c8.1158 0 11.8623.8048 17.2373 1.4923.96-1.2328 2.2627-6.611 2.2627-9.2648 0-10.7696-8.7304-19.5-19.5-19.5-10.7695 0-19.5 8.7304-19.5 19.5 0 3.744.658 8.4565 2.4873 9.5773 5.1875-.1875 9.9872-1.8048 17.0127-1.8048z"/></g></svg>