<svg xmlns="http://www.w3.org/2000/svg" xmlns:xlink="http://www.w3.org/1999/xlink" width="190" height="190" viewBox="0 0 190 190"><defs><path id="a" d="M0 .577v35.876h14.648V.577H0z"/></defs><g fill="none" fill-rule="evenodd"><circle cx="95" cy="95" r="95" fill="#FFF"/><path fill="#4F67AF" d="M103.4485 106.3642v.098l.051-.0584.0527.0583v-.0978c3.1974-3.196 19.8743-19.871 30.345-30.3348 9.4695-9.4638 9.2697-23.2573.658-31.817-8.5987-8.5372-22.4892-8.511-31.0558.0414-8.5722-8.5523-22.4608-8.5786-31.0538-.0415-8.6174 8.5598-8.8116 22.3533.656 31.817 1.6893 1.6894 29.4477 29.4328 30.347 30.335"/><path fill="#263357" stroke="#263357" d="M87.9465 38.7667c-5.5992 0-10.8684 2.1696-14.837 6.1133-3.976 3.9493-6.1684 9.151-6.176 14.6523-.0075 5.795 2.4188 11.4168 6.834 15.8313 1.5667 1.5632 25.496 25.4815 29.7323 29.721l29.7322-29.721c4.4134-4.4126 6.8397-10.0344 6.834-15.8275-.0075-5.501-2.2-10.7048-6.176-14.656-3.9685-3.9418-9.2396-6.1133-14.8407-6.1133-5.6218 0-10.908 2.1847-14.882 6.1547-.3696.3673-.9654.3673-1.335 0-3.976-3.97-9.264-6.1547-14.8858-6.1547m15.5043 68.6023c-.1075 0-.215-.0188-.315-.0565-.2336-.0904-.4278-.2543-.5372-.4652-2.5582-2.5594-28.5294-28.5212-30.164-30.1522-4.7733-4.7722-7.3957-10.8667-7.3863-17.1664.0076-6.0022 2.4-11.6805 6.7322-15.984 4.3248-4.2958 10.0654-6.6612 16.166-6.6612 5.816 0 11.304 2.147 15.5533 6.0662 4.2474-3.9192 9.7335-6.0662 15.5495-6.0662 6.1007 0 11.843 2.3654 16.1697 6.6613 4.3323 4.3053 6.7228 9.9836 6.7323 15.9895.0075 6.298-2.615 12.3905-7.3864 17.161L104.331 106.917c-.1037.1676-.2564.305-.4412.3748-.1206.047-.247.0715-.3714.0753-.0226.002-.047.002-.0678.002"/><path fill="#4F67AF" d="M51.7166 110.118h-8.7852c-1.099 0-1.989.891-1.989 1.989v30.0164c0 1.098.89 1.987 1.989 1.987h8.7852c1.0972 0 1.989-.889 1.989-1.987V112.107c0-1.098-.8918-1.989-1.989-1.989"/><path fill="#263357" stroke="#263357" d="M54.647 137.7266l3.2765.0395 9.9032 2.9532c1.1198.3352 2.2793.565 3.448.6837l27.6736 2.8192c5.7274.4878 11.6584-.145 17.22-1.8777l33.7363-8.7273c.8786-.273 1.6176-.9135 2.0323-1.7854.4166-.874.4486-1.8476.0885-2.746l-.641-1.599c-.6635-1.659-2.2792-2.4332-5.0826-2.4332-1.4347 0-2.9693.196-4.5473.4163-1.0274.177-25.9202 4.4125-35.2786 4.4182L84.2567 126.76c-.4807-.0415-.9652-.292-1.3083-.7007-.3432-.4086-.5072-.9266-.4582-1.4558.083-1.019.956-1.823 1.9872-1.823l18.0022 1.5255c3.2332.2693 6.1798-1.7327 6.8793-4.5615.313-1.2637.1678-2.29-.4374-3.1357-.922-1.2863-2.9976-2.1546-5.6916-2.3843l-9.1887-.7835-1.7928-.337-10.4556-3.183c-3.2898-1.0056-6.8434-1.017-10.139-.0414L57.656 115.767h-3.009v21.9596zm48.1133 8.539c-1.3253 0-2.6676-.0565-3.9892-.1695l-27.6866-2.821c-1.2876-.13-2.5658-.3824-3.797-.7497l-9.771-2.9154h-4.7547v-25.7264h4.7l13.5567-5.7743c3.8553-1.1526 7.688-1.098 11.3228.0094l11.9562 3.4597 9.0907.7684c3.2974.2825 5.8048 1.4068 7.066 3.166.935 1.3013 1.182 2.8776.7334 4.6837-.9295 3.7648-4.6924 6.3487-8.8682 5.9853l-17.8307-1.518-.096.1846 22.2156 3.1658c9.068-.015 34.6-4.3618 34.8583-4.405 1.6722-.2336 3.2803-.439 4.8356-.439 3.6234 0 5.8593 1.181 6.832 3.616l.641 1.601c.5487 1.371.4996 2.921-.1357 4.2544-.6353 1.3334-1.808 2.3485-3.218 2.7873l-33.7385 8.7273c-4.483 1.3955-9.181 2.1093-13.9225 2.1093z"/><g transform="translate(40 108.6)"><mask id="b" fill="#fff"><use xlink:href="#a"/></mask><path fill="#263357" stroke="#263357" d="M2.931 2.4608c-.577 0-1.0463.469-1.0463 1.047v30.0167c0 .5763.4694 1.0452 1.0463 1.0452h8.7852c.577 0 1.0463-.469 1.0463-1.0452V3.508c0-.5783-.4694-1.0472-1.0463-1.0472H2.931zm8.7852 33.9922H2.931c-1.6157 0-2.9316-1.3126-2.9316-2.9285V3.508c0-1.616 1.316-2.9306 2.9316-2.9306h8.7852c1.6176 0 2.9316 1.3146 2.9316 2.9305v30.0165c0 1.616-1.314 2.9285-2.9316 2.9285z" mask="url(#b)"/></g><path fill="#263357" stroke="#263357" d="M131.9757 62.6816c-.5203 0-.9426-.422-.9426-.9417 0-7.121-5.8008-12.916-12.9308-12.916-.5223 0-.9427-.4218-.9427-.9416 0-.5217.4204-.9417.9427-.9417 8.1706 0 14.816 6.6388 14.816 14.7992 0 .5197-.4222.9416-.9425.9416"/></g></svg>