<svg xmlns="http://www.w3.org/2000/svg" width="190" height="190" viewBox="0 0 190 190"><g fill="none" fill-rule="evenodd"><circle cx="95" cy="95" r="95" fill="#FFF"/><path fill="#4F67AF" d="M157.847 90.7915c-5.388 5.1046-10.0673 7.7987-14.0375 8.0823-3.9703.2836-24.9558.4254-62.9568.4254 8.7913 2.5523 13.045 7.3733 12.7615 14.463-.4253 10.6346-12.7615 6.3808-12.7615 10.6346 0 2.836 22.5454 2.836 67.636 0 6.239-.8508 9.3584-3.6867 9.3584-8.5077V90.7916zM54.906 45.2755l5.9554 10.2092c7.0897 5.1046 11.627 7.657 13.6123 7.657 2.9776 0 13.6122-.4255 14.0376-2.5524.2836-1.418 1.418-2.127 3.403-2.127 2.2688-2.5522 1.1344-5.9553-3.403-10.209-6.806-6.3808-.8508-4.254-10.6346-6.3808-9.7838-2.127-11.9107-4.254-14.463-2.127-1.7015 1.418-4.5374 3.2613-8.5077 5.53z"/><g fill="#263357"><path d="M104.2463 148.6517c-3.856 0-7.5207-1.0952-10.6693-3.179-3.148 2.0838-6.8126 3.179-10.6687 3.179-7.0377 0-13.5206-4.1-17.3433-10.968-.2376-.427-.5673-1.0058-.9698-1.7128-7.124-12.5168-16.5954-30.3157-16.5954-40.3394 0-15.4053 13.0282-27.9394 29.0415-27.9394 5.9732 0 11.6664 1.715 16.5357 4.9708 4.8705-3.2558 10.5636-4.9708 16.5363-4.9708 16.014 0 29.042 12.534 29.042 27.9394 0 1.067-.112 2.2747-.333 3.59-.1443.8595-.957 1.4355-1.809 1.2935-.8548-.1446-1.431-.959-1.287-1.8185.192-1.1426.2888-2.1737.2888-3.065 0-13.6655-11.619-24.783-25.9017-24.783-5.6895 0-11.0896 1.734-15.6183 5.014l-.918.665-.918-.665c-4.5276-3.28-9.9276-5.014-15.6177-5.014-14.282 0-25.9013 11.1175-25.9013 24.783 0 10.3436 12.1787 31.7403 16.181 38.7717.4092.718.743 1.3057.9843 1.7397 3.3082 5.944 8.6308 9.3523 14.603 9.3523 3.5635 0 6.9283-1.111 9.7293-3.2137l.9394-.7054.9395.7054c2.8015 2.1027 6.1657 3.2137 9.7298 3.2137 8.345 0 13.2124-6.5737 14.9175-9.4002.995-1.6502 3.6102-6.1944 6.384-11.5787.3983-.7738 1.3456-1.078 2.116-.676.7704.401 1.0713 1.353.6725 2.127-3.515 6.8235-6.3678 11.5655-6.487 11.7638-4.1876 6.9405-10.6035 10.9207-17.603 10.9207"/><path d="M93.5368 76.0865c-.8672 0-1.57-.7065-1.57-1.5782V61.8627c0-4.7025 3.8058-8.528 8.4847-8.528 4.6778 0 8.4837 3.8255 8.4837 8.528 0 .8717-.703 1.5782-1.57 1.5782-.8673 0-1.5702-.7066-1.5702-1.5783 0-2.9618-2.397-5.3717-5.3435-5.3717-2.947 0-5.3446 2.41-5.3446 5.3717v12.6456c0 .8717-.703 1.5782-1.5702 1.5782"/><path d="M56.145 44.861c1.7254 3.459 7.0428 12.7192 15.7898 15.7594 1.85.6434 3.7504.969 5.648.969 6.2318 0 11.0635-3.509 12.7022-4.8693-.561-2.6975-3.0277-11.315-12.039-14.4467-2.1332-.7407-4.4904-1.1168-7.0068-1.1168-6.5075 0-12.5314 2.4856-15.0943 3.7045m21.438 19.8848c-2.248 0-4.4937-.3846-6.6746-1.1426-12.1336-4.217-18.0382-18.2598-18.2837-18.8558l-.5328-1.293 1.2136-.686C53.65 42.5736 61.847 38 71.2392 38c2.8665 0 5.5686.434 8.0326 1.2905 12.3828 4.3032 14.199 17.275 14.27 17.8247l.101.7802-.5584.5507c-.261.257-6.4965 6.2998-15.5015 6.2998"/><path d="M91.985 58.8978c-.1732 0-.3495-.0294-.5228-.0905l-24.722-8.7737c-.8182-.29-1.2468-1.1915-.958-2.0138.289-.8212 1.183-1.2515 2.0035-.9627l24.7222 8.774c.818.2902 1.2466 1.192.9577 2.0136-.2277.6476-.8338 1.0532-1.4806 1.0532m52.2578 67.483H78.4266V97.829h65.8162c.8672 0 1.57.706 1.57 1.5783 0 .8716-.7028 1.5782-1.57 1.5782h-62.676v22.239h62.676c.8672 0 1.57.7064 1.57 1.578 0 .8718-.7028 1.5783-1.57 1.5783"/><path d="M80.72 125.983c-.8673 0-1.57-.7064-1.57-1.578 0-.8718.7027-1.5783 1.57-1.5783 5.9182 0 10.733-4.8393 10.733-10.788 0-5.9488-4.8148-10.789-10.733-10.789-.8673 0-1.57-.706-1.57-1.5783 0-.8717.7027-1.5782 1.57-1.5782 7.6495 0 13.8733 6.256 13.8733 13.9455 0 7.689-6.2238 13.9444-13.8733 13.9444m65.102.3978h-16.0546c-.8672 0-1.57-.7065-1.57-1.5782s.7028-1.5782 1.57-1.5782h16.0547c5.81 0 10.536-4.751 10.536-10.5908V89.3552c0-5.8394-4.726-10.5903-10.536-10.5903h-16.0546c-.8672 0-1.57-.706-1.57-1.5783 0-.8717.7028-1.5782 1.57-1.5782h16.0547c7.5407 0 13.676 6.167 13.676 13.7467v23.2784c0 7.58-6.1353 13.7472-13.676 13.7472"/><path d="M145.822 100.9852h-16.0546c-.8672 0-1.57-.7065-1.57-1.5782s.7028-1.5782 1.57-1.5782h16.0547c5.2563 0 9.7452-3.9424 10.4418-9.1704.1156-.8633.9033-1.4646 1.7647-1.3546.8594.1157 1.4628.91 1.3477 1.774-.9044 6.7888-6.7315 11.9074-13.554 11.9074m-34.8115 17.4634c-.8672 0-1.57-.7065-1.57-1.5782v-16.599c0-.8716.7028-1.578 1.57-1.578.8672 0 1.57.7064 1.57 1.578v16.599c0 .8717-.7028 1.5782-1.57 1.5782"/><path d="M129.8258 118.4486c-.8672 0-1.57-.7065-1.57-1.5782v-16.599c0-.8716.7028-1.578 1.57-1.578.8672 0 1.57.7064 1.57 1.578v16.599c0 .8717-.7028 1.5782-1.57 1.5782m-9.4068-8.5136c-.8672 0-1.57-.7065-1.57-1.5782v-8.085c0-.8718.7028-1.5783 1.57-1.5783.8672 0 1.57.7065 1.57 1.5782v8.085c0 .8718-.7028 1.5783-1.57 1.5783m-18.816 0c-.8673 0-1.5702-.7065-1.5702-1.5782v-8.085c0-.8718.703-1.5783 1.57-1.5783.8674 0 1.5702.7065 1.5702 1.5782v8.085c0 .8718-.7028 1.5783-1.57 1.5783m37.6306 0c-.8672 0-1.57-.7065-1.57-1.5782v-9.3145c0-.8717.7028-1.5782 1.57-1.5782.8672 0 1.57.7066 1.57 1.5783v9.3145c0 .8717-.7028 1.5782-1.57 1.5782m9.58 8.5136c-.8673 0-1.57-.7065-1.57-1.5782v-16.599c0-.8716.7027-1.578 1.57-1.578.8672 0 1.57.7064 1.57 1.578v16.599c0 .8717-.7028 1.5782-1.57 1.5782"/></g></g></svg>