<svg xmlns="http://www.w3.org/2000/svg" xmlns:xlink="http://www.w3.org/1999/xlink" width="190" height="190" viewBox="0 0 190 190"><defs><path id="a" d="M0 .502v44.08h44.08V.502z"/></defs><g fill="none" fill-rule="evenodd"><circle cx="95" cy="95" r="95" fill="#FFF"/><path fill="#4F67AF" d="M95.17 142.0605l-.709.71c-2.971 2.97-7.781 2.97-10.75 0-2.971-2.971-2.971-7.79 0-10.761l.709-.699 10.75 10.75z"/><path fill="#4F67AF" d="M72.9492 132.0097c-2.969-2.97-2.969-7.779 0-10.75l.711-.71.35.351.429.429 9.981 9.981-.709.699c-2.971 2.971-7.791 2.971-10.762 0"/><path fill="#4F67AF" d="M73.6602 120.5498l-.711.71c-2.969 2.971-7.779 2.971-10.76 0-2.968-2.97-2.968-7.79 0-10.76l.711-.71 10.76 10.76zM43.58 90.47l.18.181-1.93 1.929-5.75-5.75-4.58-4.58L62.25 51.5l10.33 10.33-1.93 1.93-.179-.18M95.17 99.04c-2.971 2.96-7.779 2.96-10.75 0-2.971-2.97-2.971-7.79 0-10.76l10.75-10.76 5.1-5.089c2.97-2.971 7.781-2.971 10.75 0l8.5-8.5 26.89 26.899-18.97 18.96-21.161-21.16c-.119-.12-.24-.22-.369-.33L95.17 99.04z"/><path fill="#263357" d="M89.085 146.498c-2.431 0-4.716-.947-6.435-2.667-2.246-2.246-3.071-5.383-2.476-8.284-2.903.595-6.039-.231-8.285-2.477-2.243-2.243-3.068-5.377-2.474-8.276-2.9.596-6.035-.23-8.284-2.472-3.553-3.553-3.553-9.331-.002-12.883l.712-.711 2.119 2.124-.711.709c-2.38 2.381-2.38 6.256.001 8.638 2.387 2.378 6.262 2.379 8.639 0 .584-.586 1.535-.585 2.121 0 .293.293.439.676.439 1.06s-.146.768-.439 1.061c-2.378 2.38-2.378 6.251 0 8.629 1.153 1.153 2.687 1.789 4.32 1.789 1.633 0 3.167-.636 4.32-1.789.586-.586 1.536-.586 2.122 0 .292.293.439.677.439 1.061 0 .384-.147.767-.439 1.06-1.154 1.154-1.789 2.688-1.789 4.32 0 1.632.635 3.167 1.789 4.32 1.152 1.153 2.684 1.788 4.313 1.788 1.63 0 3.162-.635 4.315-1.789l.708-.709 2.123 2.121-.709.71c-1.72 1.72-4.006 2.667-6.437 2.667m7.1445-67.916l-2.119-2.123 5.099-5.09c1.719-1.719 4.005-2.666 6.436-2.666 1.923 0 3.755.593 5.288 1.692l7.525-7.525 2.122 2.121-8.5 8.5c-.282.281-.663.44-1.061.44-.398 0-.779-.159-1.061-.44-1.153-1.153-2.684-1.788-4.313-1.788-1.63 0-3.162.635-4.315 1.788l-5.101 5.091zM128.5 110.851l-2.121-2.122 18.971-18.96 2.121 2.122"/><path fill="#263357" d="M119.711 62.0005l28.626 28.631 8.212-8.212-28.629-28.628-8.209 8.209zm28.629 32.25c-.383 0-.766-.146-1.058-.437l-1.929-1.92-28.824-28.833c-.586-.586-.586-1.536 0-2.121l10.33-10.33c.586-.586 1.536-.586 2.122 0l30.75 30.75c.585.585.585 1.536 0 2.121l-10.331 10.33c-.293.293-.676.44-1.06.44z"/><path fill="#263357" d="M152.959 87.891l-11.43-11.43 2.121-2.121 11.43 11.43M45.7012 90.4702l50.889 50.889c1.153 1.153 2.685 1.789 4.315 1.789 1.629 0 3.16-.636 4.314-1.789 1.153-1.153 1.789-2.687 1.789-4.319 0-1.632-.636-3.166-1.789-4.319-.293-.293-.44-.677-.44-1.061 0-.384.147-.768.44-1.061.586-.586 1.535-.585 2.121 0 1.153 1.153 2.687 1.788 4.32 1.788 1.632 0 3.166-.635 4.318-1.788 1.154-1.153 1.789-2.687 1.789-4.319 0-1.632-.635-3.166-1.789-4.319-.293-.293-.439-.677-.439-1.06 0-.385.146-.768.439-1.061.586-.586 1.536-.586 2.121-.001 1.154 1.153 2.688 1.789 4.321 1.789 1.633 0 3.167-.636 4.32-1.789 2.378-2.378 2.378-6.249 0-8.628l-.36-.359-20.45-20.451-9.7 9.699c-1.721 1.716-4.007 2.66-6.435 2.66-2.429 0-4.714-.944-6.434-2.658-1.722-1.721-2.67-4.008-2.67-6.442s.948-4.721 2.668-6.441l9.69-9.698-4.389-4.39c-1.153-1.153-2.686-1.788-4.315-1.788-1.629 0-3.162.635-4.314 1.788-.586.586-1.536.586-2.12.001l-7.439-7.432-24.771 24.77zm55.204 55.678c-2.431 0-4.717-.948-6.436-2.668l-51.953-51.953c-.583-.586-.582-1.534.003-2.118l26.891-26.89c.586-.586 1.535-.586 2.121 0l7.525 7.516c1.533-1.099 3.366-1.692 5.289-1.692 2.43 0 4.716.947 6.436 2.666l5.449 5.451c.586.585.586 1.534.001 2.12l-10.75 10.76c-1.154 1.154-1.79 2.688-1.79 4.32 0 1.632.636 3.166 1.789 4.319 1.152 1.148 2.685 1.781 4.315 1.781 1.63 0 3.162-.633 4.316-1.783l10.738-10.738c.555-.555 1.441-.588 2.037-.079.195.167.327.281.459.414l21.515 21.514c3.549 3.55 3.549 9.324.001 12.873-1.72 1.719-4.008 2.667-6.441 2.667-.624 0-1.239-.063-1.837-.184.122.597.184 1.212.184 1.836 0 2.434-.948 4.721-2.668 6.441-1.718 1.719-4.005 2.666-6.439 2.666-.624 0-1.239-.062-1.837-.184.122.598.185 1.213.185 1.837-.001 2.433-.949 4.721-2.668 6.441-1.719 1.719-4.004 2.667-6.435 2.667z"/><g transform="translate(30 49.498)"><mask id="b" fill="#fff"><use xlink:href="#a"/></mask><path fill="#263357" d="M3.621 32.752l8.209 8.209 28.629-28.629-8.209-8.209L3.621 32.752zm8.209 11.83c-.384 0-.768-.146-1.061-.439L.439 33.813c-.586-.586-.586-1.536 0-2.122L31.189.941c.586-.585 1.536-.585 2.121 0l10.331 10.331c.585.585.585 1.535 0 2.121l-30.75 30.75c-.293.293-.677.439-1.061.439z" mask="url(#b)"/></g><path fill="#263357" d="M36.112 88.92l-2.123-2.12 12.46-12.461 2.121 2.122"/></g></svg>