<svg xmlns="http://www.w3.org/2000/svg" width="190" height="190" viewBox="0 0 190 190"><g fill="none" fill-rule="evenodd"><circle cx="95" cy="95" r="95" fill="#FFF"/><g transform="translate(43 48)"><path fill="#FFF" d="M29.1915 0c-10.1925 0-18.468 4.1903-18.468 9.3618v46.809l36.936-20.596V9.3618C47.6596 4.1903 39.384 0 29.1916 0"/><ellipse cx="28" cy="9.561" fill="#4F67AF" rx="18.468" ry="9.561"/><path stroke="#263357" stroke-width="3" d="M47.6596 9.561C47.6596 4.2795 39.384 0 29.1916 0 18.999 0 10.7233 4.2795 10.7233 9.561s8.2756 9.561 18.468 9.561c10.1926 0 18.4682-4.2795 18.4682-9.561z"/><path stroke="#263357" stroke-width="3" d="M10.7234 8.366v9.5608c0 5.2815 8.2756 9.561 18.468 9.561 10.1926 0 18.4682-4.2795 18.4682-9.561v-9.561"/><path stroke="#263357" stroke-linecap="round" stroke-width="3" d="M47.6 27.4878V19.122m-36.8766 0v9.1734c0 4.108 5.5146 7.5865 13.1064 8.7534"/><path stroke="#263357" stroke-linecap="round" stroke-width="3" d="M10.7234 27.4878v9.0645c0 2.5345 2.281 4.8278 5.9575 6.472M10.7 27.488v20.317"/><path fill="#4F67AF" d="M112 40.922L38.621 80.073 0 59.468l73.379-39.151"/><path stroke="#263357" stroke-linejoin="round" stroke-width="3" d="M112 40.922L38.621 80.073 0 59.468l73.379-39.151z"/><path stroke="#263357" stroke-linecap="round" stroke-linejoin="round" stroke-width="3" d="M112 50.195L38.621 89.634 0 68.876"/><path stroke="#263357" stroke-linecap="round" stroke-linejoin="round" stroke-width="3" d="M112 58.561L38.621 98 0 77.241"/><path fill="#FFF" d="M91.7447 39.415l-15.592-8.3418c-2.5983 1.3906-5.645 1.1507-7.7968 0l-48.1007 25.732c2.5984 1.3907 2.174 3.008.024 4.157l15.5936 8.3418c2.15-1.149 5.171-1.3757 7.771.013l48.1007-25.732c-2.1537-1.1526-2.5984-2.7812 0-4.17"/><path stroke="#263357" stroke-width="3" d="M91.7447 39.415l-15.592-8.3418c-2.5983 1.3906-5.645 1.1507-7.7968 0l-48.1007 25.732c2.5984 1.3907 2.174 3.008.024 4.157l15.5936 8.3418c2.15-1.149 5.171-1.3757 7.771.013l48.1007-25.732c-2.1537-1.1526-2.5984-2.7812 0-4.17zM73 38.244v4.7804M38 57.366v4.7803"/><path fill="#FFF" d="M62.2533 46.16c4.1197 2.432 4.3942 6.214.6124 8.4425-3.7836 2.2284-10.1875 2.062-14.309-.372-4.1214-2.4343-4.396-6.2163-.614-8.4427 3.7835-2.2284 10.1892-2.0622 14.3106.372"/><path stroke="#2A5082" stroke-width="2.402" d="M62.2533 46.16c4.1197 2.432 4.3942 6.214.6124 8.4425-3.7836 2.2284-10.1875 2.062-14.309-.372-4.1214-2.4343-4.396-6.2163-.614-8.4427 3.7835-2.2284 10.1892-2.0622 14.3106.372z"/><path fill="#FFF" d="M65.532 66.13L25.021 42.825l18.414-9.362 42.352 22.416v22.665l-20.255 11.09"/><path stroke="#263357" stroke-linejoin="round" stroke-width="3" d="M65.532 66.13L25.021 42.825l18.414-9.362 42.352 22.416v22.665l-20.255 11.09z"/></g></g></svg>