<svg xmlns="http://www.w3.org/2000/svg" width="190" height="190" viewBox="0 0 190 190"><g fill="none" fill-rule="evenodd"><circle cx="95" cy="95" r="95" fill="#FFF"/><path fill="#4F67AF" d="M56.554 83.172h77.489V68.607l-.889-3.019-2.488-1.066h-8.353v6.039h-11.375v-6.039H79.836v6.039h-11.73v-6.039H61.53l-3.732 1.066-1.244 3.019v5.24"/><g stroke="#263357" stroke-width="3.078"><path d="M68.198 64.6856h-7.7534c-2.14 0-3.8766 1.7357-3.8766 3.8743v60.051c0 2.1385 1.7367 3.874 3.8766 3.874h69.779c2.14 0 3.8768-1.7355 3.8768-3.874V68.56c0-2.1387-1.7368-3.8744-3.8767-3.8744h-7.7532"/><path d="M120.5322 55h-7.7532c-1.072 0-1.9384.866-1.9384 1.937v13.56h11.63v-13.56c0-1.071-.8665-1.937-1.9384-1.937zm-42.6428 0h-7.7532c-1.072 0-1.9383.866-1.9383 1.937v13.56h11.6297v-13.56c0-1.071-.8664-1.937-1.9383-1.937zm5.815 42.195h7.7532m7.7532 0h7.7532m7.7533 0h7.7532M68.198 107.168h7.753m7.7533 0h7.7533m7.7532 0h7.7532m7.7533 0h7.7532m-54.2726 9.2062h7.753m7.7533 0h7.7533m7.7532 0h7.7532m27.1364-32.9888H56.568m54.2726-19.1794h-31.013"/></g><path fill="#4F67AF" d="M75.066 127.127c-1.3003.9388-3.8256 3.6547-4.7143 4.98-2.5998-1.0027-5.5288-3.9247-8.1515-7.0383-2.6204-3.1147-4.9897-6.487-5.4943-9.1738 1.5022-.595 4.7178-2.492 5.9116-3.5574.6916-4.365-.6766-10.553-3.1938-14.5843-2.703-.5838-9.1618-.781-13.7237 1.099-1.6204 5.583-1.2408 17.299 10.1515 31.3165 11.8774 13.6275 23.5702 16.2548 29.491 15.7798 2.7696-4.01 3.819-10.2394 3.7547-12.944-3.563-3.191-9.5127-5.6973-14.031-5.8777z"/><path stroke="#263357" stroke-width="3.078" d="M89.0972 133.0045c-3.5633-3.191-9.5104-5.6972-14.029-5.8776-1.3007.9388-3.826 3.6547-4.715 4.98-2.6-1.0027-5.529-3.9247-8.152-7.0383-2.6205-3.1147-4.99-6.487-5.4945-9.1738 1.5024-.595 4.7182-2.492 5.912-3.5574.6917-4.365-.6766-10.553-3.194-14.5843-2.703-.5838-9.1623-.781-13.7246 1.099-1.6204 5.583-1.2408 17.299 10.1522 31.3165 11.8782 13.6275 23.5717 16.2548 29.493 15.7798 2.7697-4.01 3.8163-10.2394 3.752-12.944z"/></g></svg>