<svg width="190" height="190" viewBox="0 0 190 190" xmlns="http://www.w3.org/2000/svg"><g transform="translate(-963 -1220)" fill="none" fill-rule="evenodd"><circle fill="#FFF" cx="1058" cy="1315" r="95"/><path d="M1093.6567 1300.821c8.7213 0 16.473 5.307 19.6343 13.3185 6.93 2.5682 11.5087 9.072 11.5087 16.5263 0 9.731-7.954 17.648-17.731 17.648-47.5552 0-44.1658-.0022-91.0637-.0022-13.2363 0-24.005-10.719-24.005-23.894 0-10.0642 6.5106-19.1543 15.969-22.5 4.212-11.1196 14.87-18.5125 26.8772-18.5125 9.8273 0 18.8972 5.0067 24.1738 13.1855-.0112-.2452-.0343-.4946-.0343-.7364 0-9.4523 7.7273-17.1427 17.2235-17.1427 9.497 0 17.2235 7.6904 17.2235 17.1428 0 1.7182-.2793 3.4078-.7798 5.029.336-.016.665-.062 1.0037-.062zm13.412 43.0226c7.3003 0 13.2398-5.9117 13.2398-13.1778 0-5.7626-3.8696-10.9483-9.4087-12.6128-.6986-.2104-1.2523-.7455-1.4826-1.4352-2.261-6.775-8.5953-11.3266-15.7605-11.3266-5.2675 0-10.15 2.493-13.2594 6.6244-.012.0174-.0266.0307-.0392.0474-.4766.6382-.9176 1.309-1.304 2.0226-.551 1.02-1.7955 1.4512-2.861.9928-1.0352-.4417-2.1328-.6654-3.2612-.6654-4.5675 0-8.2838 3.6982-8.2838 8.245 0 .871-.5005 1.813-1.2957 2.1787-3.556 1.6352-5.854 5.2017-5.854 9.086 0 5.5187 4.5044 10.0062 10.045 10.0188h.0202c.0042 0 .007.002.0112.002h39.494zm-110.5776-19.426c0 10.7107 8.7543 19.424 19.514 19.424h41.0662c-2.511-2.6052-4.0642-6.132-4.0642-10.019 0-5.1585 2.7993-9.9296 7.2345-12.506.6965-6.5145 6.123-11.4737 12.6903-11.4737 1.0724 0 2.1252.131 3.15.3907.0175-.0257.0392-.048.056-.0738-1.316-5.6073-6.2755-9.612-12.1674-9.612-1.717 0-3.3747.337-4.9287 1.0018-1.069.455-2.308.028-2.8616-.988-4.2608-7.8255-12.436-12.6866-21.3338-12.6866-10.4517 0-19.6945 6.642-22.9992 16.5284-.2296.691-.784 1.2255-1.4833 1.4352-8.1676 2.4455-13.8726 10.0857-13.8726 18.5788zm92.4505-28.5635c0-6.988-5.7113-12.6726-12.7323-12.6726-7.0203 0-12.7323 5.6846-12.7323 12.6727 0 .083.0216.1736.0237.2572.1575-.005.3115-.0335.4697-.0335 6.937 0 12.9584 4.078 15.6044 10.131 2.259-2.024 4.9413-3.51 7.8463-4.4088.9794-1.8234 1.5205-3.8557 1.5205-5.946z" stroke="#FFF" stroke-width=".7" fill="#263357"/><path d="M1107.0687 1343.8436h-39.494c-.0042 0-.007-.002-.0112-.002h-.0203c-5.5405-.0127-10.045-4.5002-10.045-10.019 0-3.8842 2.298-7.4507 5.854-9.086.7953-.3657 1.2958-1.3077 1.2958-2.1786 0-4.5468 3.7163-8.245 8.2838-8.245 1.1284 0 2.226.2237 3.2613.6654 1.0655.4584 2.31.0272 2.861-.9928.3864-.7135.8274-1.3844 1.304-2.0226.0127-.0167.0274-.03.0393-.0474 3.1094-4.1315 7.992-6.6244 13.2594-6.6244 7.1652 0 13.4995 4.5517 15.7605 11.3266.2303.6897.784 1.2248 1.4826 1.4352 5.539 1.6645 9.4087 6.8502 9.4087 12.6128 0 7.266-5.9395 13.1778-13.2398 13.1778" stroke="#4F67AF" stroke-width=".7" fill="#4F67AF"/><path d="M996.491 1324.4176c0-8.493 5.705-16.1333 13.8727-18.5788.6993-.2097 1.2537-.744 1.4833-1.4352 3.3047-9.8865 12.5475-16.5284 22.9992-16.5284 8.8977 0 17.073 4.861 21.334 12.6866.5536 1.016 1.7926 1.443 2.8615.988 1.554-.6647 3.2116-1.002 4.9287-1.002 5.892 0 10.8514 4.005 12.1674 9.612-.0168.026-.0385.0482-.056.074-1.0248-.26-2.0776-.391-3.15-.391-6.5674 0-11.9938 4.9593-12.6903 11.4737-4.4352 2.5765-7.2345 7.3476-7.2345 12.506 0 3.887 1.5533 7.414 4.0642 10.019h-41.0662c-10.7597 0-19.514-8.7132-19.514-19.424" stroke="#4F67AF" stroke-width=".7" fill="#4F67AF"/><path d="M1076.2093 1273.27c1.2404 0 2.2456-1.0012 2.2456-2.235v-4.7998c0-1.2346-1.0053-2.235-2.2457-2.235-1.2397 0-2.2456 1.0004-2.2456 2.235v4.7997c0 1.2338 1.006 2.235 2.2456 2.235M1061.9027 1275.4492c.6174 1.0632 1.9894 1.4367 3.068.8187 1.074-.618 1.4414-1.9844.8226-3.054l-2.4115-4.1565c-.6216-1.0688-1.9922-1.4373-3.068-.8186-1.0746.6178-1.442 1.984-.8226 3.0536l2.4115 4.1566zM1049.4993 1282.8726l4.1762 2.401c1.062.6138 2.443.259 3.0674-.818.62-1.068.2526-2.4357-.822-3.0516l-4.176-2.4016c-1.071-.6194-2.45-.253-3.0668.818-.621 1.068-.2534 2.4356.821 3.0522M1098.6862 1295.6412c0 1.234 1.0052 2.235 2.2456 2.235h4.8223c1.2405 0 2.2457-1.001 2.2457-2.235 0-1.2338-1.0052-2.235-2.2456-2.235h-4.8222c-1.2404 0-2.2456 1.0012-2.2456 2.235M1098.742 1285.2734l4.1768-2.401c1.0738-.6165 1.4413-1.9842.821-3.0522-.6208-1.0695-1.9963-1.4395-3.0666-.8173l-4.177 2.4008c-1.0744.6166-1.442 1.9836-.821 3.0524.625 1.0785 2.0076 1.4296 3.0667.8172M1087.4472 1276.2677c1.078.618 2.45.2446 3.068-.8186l2.411-4.1566c.6194-1.0694.2526-2.4357-.8226-3.0537-1.0787-.6187-2.4472-.25-3.0674.8187l-2.4115 4.1566c-.6195 1.0695-.252 2.4357.8225 3.0537" fill="#263357"/></g></svg>