<svg width="190" height="190" viewBox="0 0 190 190" xmlns="http://www.w3.org/2000/svg"><g transform="translate(-196 -220)" fill="none" fill-rule="evenodd"><circle fill="#FFF" cx="291" cy="315" r="95"/><path d="M338.022 311.558c0 27.8703-22.5937 50.462-50.464 50.462-27.8683 0-50.46-22.5917-50.46-50.462 0-27.8704 22.5917-50.46 50.46-50.46 27.8703 0 50.464 22.5896 50.464 50.46" fill="#FFF"/><path d="M287.558 263.196c-26.6682 0-48.362 21.6938-48.362 48.362 0 26.6682 21.6938 48.364 48.362 48.364 26.6682 0 48.366-21.6958 48.366-48.364s-21.6978-48.362-48.366-48.362zm0 100.922c-28.9802 0-52.558-23.5777-52.558-52.56C235 282.5778 258.5778 259 287.558 259c28.9844 0 52.5622 23.5778 52.5622 52.558 0 28.9823-23.5778 52.56-52.5622 52.56z" stroke="#FFF" stroke-width="1.5" fill="#263357"/><path d="M289.9162 273.6905c-1.175-.084-2.056-1.07-1.9722-2.224.063-1.154 1.07-2.035 2.224-1.972 1.154.0628 2.035 1.07 1.972 2.2238-.0838 1.11-1.007 1.9722-2.098 1.9722h-.1258zm-12.5043-.9462c-.231-1.131.5055-2.2428 1.6363-2.4736 1.133-.2308 2.245.5035 2.4757 1.6364.2308 1.133-.5035 2.245-1.6365 2.4758l-.4196.042c-.9652 0-1.8463-.6714-2.056-1.6805zm22.344 2.8764c-1.091-.3777-1.6785-1.5736-1.3218-2.6645.3798-1.091 1.5735-1.7016 2.6645-1.3218 1.091.3776 1.6994 1.5735 1.3218 2.6645-.2937.881-1.112 1.4266-1.993 1.4266-.231 0-.4407-.042-.6715-.105zm-32.142 1.154c-.5245-1.049-.126-2.308.9232-2.8325 1.028-.5245 2.2868-.105 2.8113.9232.5245 1.026.105 2.3078-.923 2.8323-.3148.147-.6295.2098-.9442.2098-.7763 0-1.5106-.4196-1.8673-1.133zm41.1426 3.2938c-.965-.6504-1.217-1.9512-.5665-2.8953.6295-.965 1.9513-1.2168 2.8954-.5874.965.6504 1.217 1.972.5665 2.9162-.3988.6085-1.07.9232-1.7394.9232-.4007 0-.7994-.105-1.156-.3567zm-49.5767 3.147c-.7764-.86-.6925-2.182.1677-2.9582.8393-.7762 2.182-.7133 2.9583.147.7763.86.6923 2.182-.147 2.979-.4195.3568-.923.5246-1.4056.5246-.5874 0-1.154-.231-1.5735-.6924zm57.0875 3.5248c-.7762-.8833-.6692-2.203.21-2.9583.86-.7762 2.2028-.6713 2.958.2098.7554.8812.6505 2.203-.2097 2.9583-.3965.3358-.9022.5036-1.3847.5036-.5853 0-1.1748-.2308-1.5735-.7133zm-63.5265 4.9094c-.9672-.6294-1.261-1.9302-.6315-2.8953.6315-.986 1.9302-1.2588 2.9163-.6294.965.6294 1.2378 1.928.6294 2.8953-.4196.6294-1.091.965-1.7833.965-.3778 0-.7764-.1048-1.131-.3356zm69.0234 3.4827c-.5035-1.049-.063-2.3078.986-2.8113 1.049-.5035 2.289-.063 2.8136.986.4804 1.026.0398 2.287-.9882 2.7905-.2937.147-.6084.2098-.9232.2098-.7762 0-1.5315-.4406-1.8882-1.175zm-73.0327 6.336c-1.091-.3566-1.6994-1.5315-1.3638-2.6224.3566-1.112 1.5315-1.7204 2.6435-1.3847 1.091.3566 1.6994 1.5315 1.3637 2.6414-.2727.9042-1.112 1.4707-1.993 1.4707-.21 0-.4407-.042-.6505-.105zm76.1378 3.189c-.2098-1.1328.5455-2.2238 1.6994-2.4336 1.133-.2098 2.226.5455 2.4336 1.6784.21 1.133-.5454 2.224-1.6784 2.4338l-.3776.042c-1.007 0-1.8883-.7134-2.077-1.7205zm-77.3967 7.3433c-1.154-.042-2.075-1.028-2.014-2.182.042-1.154 1.028-2.056 2.182-2.014 1.1538.0418 2.056 1.028 2.014 2.1798-.0608 1.114-.986 2.0162-2.098 2.0162h-.084zm78.026-.4427c0-1.1518.9442-2.098 2.0982-2.098s2.098.9462 2.098 2.098c0 1.156-.944 2.098-2.098 2.098s-2.098-.942-2.098-2.098zm-79.033 9.3593c-.2518-1.133.4406-2.2658 1.5735-2.5176 1.133-.2518 2.266.4616 2.5198 1.5945.2497 1.112-.4636 2.245-1.5965 2.4967l-.4616.0628c-.9652 0-1.8254-.6714-2.0352-1.6365zm79.201 3.168c-1.133-.3146-1.7834-1.4686-1.4896-2.5805.3147-1.112 1.4707-1.7833 2.5805-1.4707 1.112.296 1.7834 1.4498 1.4687 2.5618-.2518.944-1.089 1.5504-2.014 1.5504l-.5456-.0608zm-75.3196 7.2803c-.5455-1.028-.147-2.308.8602-2.8534 1.028-.5455 2.3078-.1468 2.8533.879h-.021c.5665 1.0093.1678 2.289-.858 2.8346-.296.1678-.6526.2517-.9652.2517-.7574 0-1.4917-.4196-1.8693-1.112zm70.683 2.266c-.9862-.5876-1.322-1.8884-.7344-2.8745.5874-1.007 1.8672-1.3426 2.8743-.7342.9862.5665 1.322 1.8673.7344 2.8534-.3776.6713-1.091 1.049-1.8043 1.049-.3566 0-.732-.105-1.07-.2937zm-64.177 6.7744c-.7994-.837-.7574-2.159.084-2.956.858-.7974 2.1798-.7554 2.977.0838.7763.8392.7553 2.182-.105 2.9792-.3985.3777-.923.5665-1.4266.5665-.5664 0-1.112-.2308-1.5294-.6735zm57.2324 1.219c-.8182-.8183-.7973-2.14.023-2.9583.8372-.8182 2.159-.7993 2.9772.021.7972.8392.7763 2.161-.042 2.9792-.3965.3965-.944.5874-1.4686.5874-.5455 0-1.091-.2098-1.4896-.6294zm-48.6116 5.8325c-.986-.6084-1.2777-1.8882-.6693-2.8743.6064-1.007 1.8862-1.3008 2.8723-.6923.986.6083 1.3007 1.888.6923 2.8742-.3986.6504-1.07 1.007-1.7833 1.007-.3777 0-.7553-.105-1.112-.3147zm39.7998.084c-.5664-1.007-.2098-2.287.7973-2.8555 1.007-.5644 2.287-.2077 2.8534.7994.5665 1.007.2098 2.2868-.7972 2.8533-.3357.1888-.6714.2728-1.028.2728-.7344 0-1.4477-.3777-1.8254-1.07zm-29.6033 4.4478c-1.112-.3147-1.7414-1.4896-1.4246-2.6016.3335-1.114 1.4895-1.7413 2.5994-1.4266 1.112.3357 1.7623 1.4897 1.4267 2.6226-.2727.9022-1.112 1.5106-2.012 1.5106-.191 0-.3797-.042-.5895-.105zm19.5558-1.07c-.2958-1.112.3965-2.266 1.5295-2.5386 1.112-.2728 2.266.3986 2.5386 1.5315.2728 1.112-.4196 2.266-1.5295 2.5387l-.5057.0628c-.944 0-1.8043-.6294-2.033-1.5945zm-8.541 2.7694c-1.154-.021-2.0772-.986-2.0562-2.14.0232-1.154.9862-2.077 2.14-2.056 1.154.021 2.0793.986 2.0562 2.14-.021 1.1538-.965 2.056-2.098 2.056h-.042z" fill="#263357"/><path d="M268.5174 325.7848l24.0163-12.3617c.6986-.3586 1.137-1.0804 1.137-1.865l-.002-19.1698c0-1.1602-.94-2.098-2.098-2.098-1.1602 0-2.098.94-2.098 2.098l.002 17.89-22.879 11.7763c-1.028.5287-1.433 1.796-.9022 2.826.3713.724 1.1035 1.1372 1.865 1.1372.3253 0 .6526-.0735.959-.233z" fill="#4F67AF"/><g><path d="M324.4642 373.1586v.0684l.0354-.0408.0367.0408v-.0684c2.226-2.233 13.8366-13.8826 21.1263-21.193 6.5927-6.6115 6.4536-16.248.458-22.2282-5.9864-5.9643-15.657-5.946-21.621.029-5.968-5.975-15.6373-5.9933-21.6197-.029-5.9996 5.98-6.1348 15.6167.4566 22.2283 1.176 1.1802 20.5015 20.5626 21.1276 21.193" fill="#4F67AF"/><path d="M313.6718 325.933c-3.8982 0-7.5666 1.5156-10.3295 4.2708-2.768 2.759-4.2945 6.3933-4.2998 10.2366-.0052 4.0485 1.684 7.976 4.758 11.0602 1.0906 1.092 17.7503 17.802 20.6995 20.764l20.6997-20.764c3.0726-3.0828 4.7618-7.0103 4.7578-11.0576-.0052-3.8433-1.5317-7.4787-4.2997-10.2392-2.763-2.754-6.4327-4.271-10.332-4.271-3.914 0-7.5943 1.5264-10.361 4.3-.2574.2565-.672.2565-.9294 0-2.768-2.7736-6.4497-4.3-10.3636-4.3m10.794 47.9277c-.0747 0-.1495-.013-.219-.0395-.1628-.063-.298-.1776-.374-.325-1.7812-1.788-19.8624-19.9257-21.0003-21.0652-3.3233-3.334-5.149-7.592-5.1425-11.993.0053-4.1934 1.671-8.1604 4.687-11.167 3.011-3.001 7.0075-4.6537 11.2548-4.6537 4.049 0 7.8698 1.5 10.8282 4.2382 2.957-2.738 6.7765-4.238 10.8257-4.238 4.2472 0 8.2452 1.6525 11.2574 4.6537 3.0162 3.0078 4.6805 6.9748 4.687 11.1707.0053 4.4-1.8204 8.6563-5.1424 11.989l-21.0487 21.114c-.0723.117-.1786.2132-.3073.262-.084.0328-.172.05-.2585.0525-.0158.0013-.0328.0013-.0473.0013" stroke="#263357" stroke-width="1.1" fill="#263357"/><path d="M344.325 342.6406c-.3622 0-.6562-.2948-.6562-.658 0-4.9748-4.0386-9.0233-9.0025-9.0233-.3636 0-.6563-.2948-.6563-.658 0-.3644.2927-.6578.6563-.6578 5.6884 0 10.315 4.638 10.315 10.3392 0 .363-.294.658-.6563.658" stroke="#263357" stroke-width="1.1" fill="#263357"/></g></g></svg>