<svg xmlns="http://www.w3.org/2000/svg" xmlns:xlink="http://www.w3.org/1999/xlink" width="190" height="190" viewBox="0 0 190 190"><defs><path id="a" d="M0 .7v105.963h65.492V.7z"/><path id="c" d="M82.29.999V107H.4V.999z"/></defs><g fill="none" fill-rule="evenodd"><circle cx="95" cy="95" r="95" fill="#FFF"/><path fill="#4F67AF" d="M104.521 68.691c0 4.779-3.871 8.649-8.641 8.649-4.78 0-8.649-3.87-8.649-8.649 0-4.771 3.869-8.641 8.649-8.641 4.77 0 8.641 3.87 8.641 8.641z"/><path fill="#4F67AF" d="M104.521 122.55c0-4.77-3.871-8.64-8.641-8.64-4.78 0-8.65 3.87-8.65 8.64 0 4.78 3.87 8.65 8.65 8.65 4.77 0 8.641-3.87 8.641-8.65m16.869-53.64c0-10.639-6.23-19.81-15.23-24.11 23.259 5.24 40.631 26.01 40.631 50.851 0 28.799-23.35 52.149-52.151 52.149-3.96 0-7.81-.46-11.52-1.3-8.99-4.3-15.22-13.47-15.22-24.11 0-14.77 11.97-26.739 26.74-26.739 14.77 0 26.75-11.971 26.75-26.741"/><g transform="translate(41 41.3)"><mask id="b" fill="#fff"><use xlink:href="#a"/></mask><path fill="#263357" d="M41.7905 106.663C17.1845 101.118-.0005 79.605-.0005 54.35c0-29.583 24.063-53.65 53.64-53.65 3.957 0 7.945.45 11.852 1.337l-.664 2.926c-3.69-.838-7.454-1.263-11.188-1.263-27.923 0-50.64 22.722-50.64 50.65 0 23.464 16.592 44.235 39.45 49.387l-.659 2.926z" mask="url(#b)"/></g><g transform="translate(66 42.3)"><mask id="d" fill="#fff"><use xlink:href="#c"/></mask><path fill="#263357" d="M17.6167 102.7744c3.648.813 7.356 1.226 11.023 1.226 27.929 0 50.651-22.722 50.651-50.65 0-20.646-12.165-38.641-30.513-46.495 5.093 5.203 8.112 12.286 8.112 19.755 0 15.571-12.672 28.24-28.25 28.24-13.918 0-25.24 11.322-25.24 25.239 0 9.595 5.574 18.481 14.217 22.685m11.023 4.226c-3.945 0-7.932-.451-11.851-1.337-.109-.025-.215-.062-.316-.11-9.764-4.67-16.073-14.665-16.073-25.464 0-15.571 12.669-28.239 28.24-28.239 13.923 0 25.25-11.322 25.25-25.24 0-9.651-5.643-18.584-14.377-22.757-.689-.329-1.02-1.123-.77-1.845.25-.721.998-1.143 1.747-.971 24.611 5.544 41.801 27.056 41.801 52.313 0 29.582-24.068 53.65-53.651 53.65" mask="url(#d)"/></g><path fill="#263357" d="M95.88 61.55c-3.942 0-7.149 3.203-7.149 7.141 0 3.942 3.207 7.149 7.149 7.149 3.938 0 7.141-3.207 7.141-7.149 0-3.938-3.203-7.141-7.141-7.141m0 17.29c-5.596 0-10.149-4.553-10.149-10.149 0-5.592 4.553-10.141 10.149-10.141 5.592 0 10.141 4.549 10.141 10.141 0 5.596-4.549 10.149-10.141 10.149m0 36.5704c-3.942 0-7.149 3.203-7.149 7.14 0 3.942 3.207 7.15 7.149 7.15 3.938 0 7.141-3.208 7.141-7.15 0-3.937-3.203-7.14-7.141-7.14m0 17.29c-5.596 0-10.149-4.554-10.149-10.15 0-5.591 4.553-10.14 10.149-10.14 5.592 0 10.141 4.549 10.141 10.14 0 5.596-4.549 10.15-10.141 10.15"/></g></svg>