<svg xmlns="http://www.w3.org/2000/svg" width="190" height="190" viewBox="0 0 190 190"><g fill="none" fill-rule="evenodd"><circle cx="95" cy="95" r="95" fill="#FFF"/><g transform="translate(50 41)"><circle cx="45" cy="13" r="11" fill="#4F67AF"/><g fill="#263357"><path d="M62.3578 68l-9.9403-2.1768C48.771 64.8752 45 63.8957 45 58.6398V51h3.2763v7.6398c0 2.2646.9305 2.735 4.9128 3.769l.9765.258L63 64.5576 62.3578 68m-35.714 0L26 64.5575l9.8085-2.147c3.9843-1.0357 4.915-1.506 4.915-3.7707V51H44v7.6398c0 5.256-3.773 6.2355-7.42 7.1834l-.95.2475L26.644 68m37.568-12.186l2.5022.3852-2.5022-5.3935v5.0084zM69.441 60c-.0733 0-.1466-.005-.2215-.0168l-11.8792-1.8298c-.8534-.1312-1.446-.9838-1.3245-1.902.1217-.92.9157-1.554 1.766-1.428l3.3102.5097V43.6818c0-.7803.4976-1.4564 1.2012-1.638.699-.175 1.432.1866 1.755.8863l6.7874 14.6365c.259.56.209 1.2277-.1294 1.7356-.295.4424-.769.698-1.2652.698z"/><path d="M25.788 50.806l-2.5006 5.3933 2.5006-.385V50.806zM20.5605 60c-.4976 0-.9703-.2556-1.2667-.698-.3385-.5078-.3884-1.1754-.1294-1.7355l6.789-14.636c.3213-.6996 1.05-1.0628 1.7534-.8862.7036.1816 1.2012.8576 1.2012 1.638v11.651l3.3103-.5096c.8548-.1346 1.6442.5078 1.766 1.4277.1215.9183-.4712 1.771-1.323 1.902l-11.8808 1.8298c-.075.0118-.1482.0168-.22.0168zM44.9992 3.2474c-5.3776 0-9.7518 4.3758-9.7518 9.7534 0 5.3776 4.3742 9.7518 9.7518 9.7518 5.3776 0 9.7534-4.3742 9.7534-9.7518 0-5.3776-4.3758-9.7534-9.7534-9.7534zm0 22.7526C37.8322 26 32 20.1677 32 13.0008 32 5.8323 37.8323 0 44.9992 0 52.1677 0 58 5.8323 58 13.0008 58 20.1678 52.1677 26 44.9992 26z"/><path d="M14.9502 106c-3.5766 0-6.5307-.6978-8.8855-2.09C2.0402 101.5316 0 97.269 0 91.2423c0-5.5462 5.5378-11.3755 14.8053-11.5302 5.8606-.0955 10.916-.9134 13.1982-1.343-.1185-4.9356-.8414-9.356-1.2712-11.5812l-8.8098 1.5783c-.097.018-.1943.0247-.2914.0247-4.7045 0-9.3432-4.9044-9.3663-9.901-.038-1.0598.1927-2.1328.69-3.1483.522-1.3528 6.465-16.632 10.7627-21.2304C22.9464 30.657 38.157 27 44.5 27c6.8057 0 22.3916 5.102 24.2754 7.108C73.569 39.22 79.8066 54.7345 80.07 55.3928c.4644.9134.708 2.016.6686 3.1467-.0214 4.9472-4.66 9.8516-9.3647 9.8516-.0973 0-.1944-.0066-.2883-.0247L62.266 66.788c-.428 2.2185-1.1477 6.6143-1.268 11.5302 2.6842.4214 8.884 1.2953 14.8433 1.394C85.5535 79.8768 89 86.0254 89 91.2424c0 4.8863-2.373 9.0007-6.679 11.588-8.0704 4.8417-21.4365 3.879-33.2547-2.4046-.8036-.4246-1.1083-1.422-.68-2.225.4247-.8032 1.4226-1.111 2.2262-.6798 10.6705 5.6697 23.0108 6.69 30.0125 2.4868 3.323-1.9947 5.0816-5.0262 5.0816-8.7654 0-5.054-3.7083-8.1333-9.9196-8.2387-8.1297-.1382-16.3977-1.6095-16.7468-1.672-.7822-.1416-1.3536-.823-1.3536-1.621 0-8.0117 1.6237-14.9157 1.6928-15.2054.201-.8475 1.0506-1.3906 1.892-1.2392l10.236 1.8318c2.8964-.1004 5.9246-3.4512 5.9395-6.6242.0213-.6254-.1055-1.1915-.3772-1.733-.1202-.283-6.3266-15.7203-10.697-20.3795-1.477-1.231-15.6154-6.0695-21.8728-6.0695-6.4023 0-20.2032 3.7425-22.3768 6.0663-3.2934 3.5236-8.421 15.801-10.1205 20.2347-.0198.051-.0428.102-.0675.1514-.27.538-.397 1.1026-.3788 1.6802.0165 3.2208 3.0448 6.5732 5.9413 6.6736L27.727 63.266c.8627-.153 1.691.3918 1.892 1.2393.069.2897 1.6927 7.1937 1.6927 15.2053 0 .767-.5302 1.4334-1.2778 1.6046-.2768.0625-6.852 1.5503-15.1743 1.6885-7.2388.1218-11.5663 4.284-11.5663 8.2387 0 4.781 1.4968 8.0906 4.4477 9.835 5.1443 3.0415 17.5356 3.1764 47.316-12.6854-2.6842-.622-6.503-1.1537-10.264-.4707-.9072.1563-1.752-.4345-1.9133-1.3282-.1614-.8952.433-1.751 1.3272-1.9122 7.7887-1.399 15.4227 1.6112 15.7422 1.7395.5895.2387.9897.795 1.0275 1.4302.038.6336-.293 1.2343-.8513 1.5388C39.9124 100.4983 24.9884 106 14.9502 106"/></g></g></g></svg>