<svg width="190" height="190" viewBox="0 0 190 190" xmlns="http://www.w3.org/2000/svg"><g fill="none" fill-rule="evenodd"><circle cx="95" cy="95" r="95" fill="#FFF"/><g transform="translate(47 45)"><path d="M52.079 63.0455v26.5c0 5.3144-4.2962 9.6363-9.579 9.6363-5.2828 0-9.579-4.322-9.579-9.6363V77.5c0-5.3145-4.296-9.6364-9.579-9.6364-1.3242 0-2.3946 1.077-2.3946 2.409 0 1.3324 1.0704 2.4092 2.3947 2.4092 2.6415 0 4.7896 2.161 4.7896 4.8182v12.0455C28.1316 97.517 34.5758 104 42.5 104c7.9242 0 14.3684-6.483 14.3684-14.4545v-26.5c0-1.3323-1.0704-2.409-2.3947-2.409-1.3243 0-2.3948 1.0767-2.3948 2.409z" stroke="#FFF" fill="#263357"/><path d="M54.5 62.5L56 64" stroke="#979797" stroke-linecap="square"/><path d="M54.4737 65.4545c-9.191 0-17.9797-5.6204-24.7424-15.8277-5.254-7.9283-8.784-18.0272-8.784-25.1268 0-13.5343 10.5992-18.8656 15.6928-21.429 1.1855-.59 2.6175-.1107 3.2138 1.0794.5915 1.19.1102 2.6356-1.0728 3.233-4.5572 2.2935-13.0442 6.56-13.0442 17.1166 0 10.7253 11.1523 36.1364 28.737 36.1364 17.5844 0 28.7367-25.411 28.7367-36.1364 0-10.559-8.487-14.8255-13.0465-17.1166-1.183-.5974-1.6643-2.043-1.0728-3.233.5915-1.19 2.0283-1.6695 3.2137-1.0793C77.3984 5.6345 88 10.9634 88 24.5c0 14.062-13.056 40.9545-33.5263 40.9545" stroke="#FFF" fill="#263357"/><path d="M54.48 63.138v5.821" stroke="#263357" stroke-width="3.82"/><circle stroke="#263357" stroke-width="3.5" fill="#4F67AF" cx="42.5" cy="5.2" r="4.5"/><circle stroke="#263357" stroke-width="3.6" fill="#4F67AF" cx="11.4" cy="67.8" r="11"/><path d="M11.3684 72.6818c-2.639 0-4.7895-2.161-4.7895-4.8182s2.1504-4.818 4.7894-4.818c2.6438 0 4.7895 2.1608 4.7895 4.818 0 2.6573-2.1458 4.8182-4.7896 4.8182" stroke="#4F67AF" fill="#263357"/><circle stroke="#263357" stroke-width="3.5" fill="#4F67AF" cx="66.5" cy="5.2" r="4.5"/></g><path d="M123.4785 119.8807v.0416l.0213-.0248.022.0248v-.0416c1.3356-1.3572 8.302-8.4384 12.6757-12.882 3.9557-4.0188 3.8722-9.8763.275-13.5113-3.592-3.6253-9.3943-3.614-12.9727.0176-3.5808-3.6317-9.3824-3.643-12.972-.0176-3.5996 3.635-3.6807 9.4925.2742 13.5114.7056.7174 12.301 12.4988 12.6765 12.882" fill="#4F67AF"/><path d="M117.005 91.175c-2.3388 0-4.54.9212-6.1976 2.596-1.661 1.677-2.5767 3.886-2.58 6.2222-.003 2.461 1.0105 4.8482 2.8548 6.7228.6545.664 10.6503 10.821 12.4198 12.6212l12.4198-12.6212c1.8436-1.8738 2.857-4.261 2.8547-6.7212-.003-2.3362-.919-4.546-2.58-6.224-1.6576-1.6738-3.8594-2.596-6.199-2.596-2.3485 0-4.5566.9278-6.2167 2.6137-.1544.156-.4032.156-.5576 0-1.6608-1.686-3.8698-2.6136-6.218-2.6136m6.4763 29.1324c-.0448 0-.0897-.008-.1315-.024-.0976-.0384-.1787-.108-.2244-.1976-1.0687-1.087-11.9174-12.1117-12.6-12.8043-1.994-2.0266-3.0895-4.6147-3.0856-7.29.0032-2.5488 1.0025-4.96 2.8122-6.7876 1.8065-1.8244 4.2045-2.829 6.753-2.829 2.4293 0 4.7218.912 6.4968 2.5762 1.7743-1.6643 4.066-2.576 6.4954-2.576 2.5484 0 4.947 1.0044 6.7544 2.8287 1.8097 1.8282 2.8083 4.2395 2.8122 6.79.0032 2.6744-1.0922 5.2617-3.0854 7.2875l-12.6293 12.834c-.0433.071-.107.1295-.1843.159-.0504.02-.103.0305-.155.032-.0096.001-.0198.001-.0285.001" stroke="#263357" stroke-width="2" fill="#263357"/><path d="M134.0053 101.9307c0-3.024-2.4232-5.485-5.4016-5.485-.218 0-.3937-.179-.3937-.3998 0-.2216.1756-.4.3937-.4 3.413 0 6.189 2.8193 6.189 6.2847 0 .2207-.1763.3998-.3937.3998-.2173 0-.3937-.179-.3937-.3998z" stroke="#263357" stroke-width="2" fill="#263357"/></g></svg>