<svg xmlns="http://www.w3.org/2000/svg" xmlns:xlink="http://www.w3.org/1999/xlink" width="190" height="190" viewBox="0 0 190 190"><defs><path id="a" d="M0 104h104V0H0z"/></defs><g fill="none" fill-rule="evenodd"><circle cx="95" cy="95" r="95" fill="#FFF"/><g transform="translate(47 38)"><path stroke="#263357" stroke-width="3.15" d="M92.0656 76.7213V44.8035c0-1.959-1.0196-3.9247-2.4773-5.0806L57.8308 11.1296c-3.8002-3.42-9.5663-3.42-13.3665 0L12.7068 39.723c-1.4578 1.1558-2.4773 3.1216-2.4773 5.0805v31.9178h81.836z"/><mask id="b" fill="#fff"><use xlink:href="#a"/></mask><path fill="#FFF" mask="url(#b)" d="M22.164 75.016h57.967V20.459H22.164"/><path stroke="#263357" stroke-linecap="round" stroke-linejoin="round" stroke-width="3.15" mask="url(#b)" d="M22.164 75.016h57.967V20.459H22.164z"/><path fill="#4F67AF" d="M90.3607 47.7377c-3.7082 2.9887-24.1434 19.8845-26.3018 21.1325-2.3597 1.364-7.2835 2.7364-12.9115 2.7364s-10.5517-1.3725-12.9113-2.7364c-2.1584-1.248-22.5936-18.1438-26.3018-21.1325h-1.705v40.918c0 2.825 2.2898 5.1148 5.115 5.1148H86.9507c2.825 0 5.1148-2.2897 5.1148-5.1148v-40.918h-1.705z" mask="url(#b)"/><path stroke="#263357" stroke-width="3.15" d="M64.059 68.8702c-2.3595 1.364-7.2833 2.7364-12.9113 2.7364-5.628 0-10.5517-1.3725-12.9113-2.7364-2.1585-1.248-24.2985-18.1438-28.0067-21.1325v40.918c0 2.825 2.2897 5.1148 5.1147 5.1148H86.951c2.825 0 5.1148-2.2897 5.1148-5.1148v-40.918c-3.7082 2.9887-25.8483 19.8845-28.0067 21.1325zm-28.3507-1.8606L17.0497 86.9503m49.4895-19.9407l18.6586 19.9407" mask="url(#b)"/><path stroke="#263357" stroke-linecap="round" stroke-linejoin="round" stroke-width="3.15" d="M34.0984 36.7586h32.3934M34.0984 43.931h32.3934m-32.3934 7.1724h22.164" mask="url(#b)"/></g></g></svg>