<?xml version="1.0" encoding="utf-8"?>
<!-- Generator: Adobe Illustrator 22.0.1, SVG Export Plug-In . SVG Version: 6.00 Build 0)  -->
<!DOCTYPE svg PUBLIC "-//W3C//DTD SVG 1.1//EN" "http://www.w3.org/Graphics/SVG/1.1/DTD/svg11.dtd">
<svg version="1.1" id="Layer_1" xmlns="http://www.w3.org/2000/svg" xmlns:xlink="http://www.w3.org/1999/xlink" x="0px" y="0px"
	 viewBox="0 0 190 190" style="enable-background:new 0 0 190 190;" xml:space="preserve">
<style type="text/css">
	.st0{fill:#FFFFFF;}
	.st1{fill:#4F67AF;}
	.st2{fill:none;stroke:#1E2946;stroke-width:2;stroke-miterlimit:10;}
</style>
<circle class="st0" cx="95" cy="95" r="95"/>
<path class="st1" d="M84.1,79.3v27.4l0,0v48.4c0,2.9,2.4,5.3,5.3,5.3s5.3-2.4,5.3-5.3v-40.6h2.5v40.6c0,2.9,2.4,5.3,5.3,5.3
	s5.3-2.4,5.3-5.3v-45.7l0,0V79.3l21.3-34.7c1.5-2.5,0.7-5.7-1.7-7.2c-2.5-1.5-5.7-0.7-7.2,1.7l-17.9,29.1H89.6L71.8,39
	c-1.5-2.5-4.8-3.3-7.2-1.7c-2.5,1.5-3.3,4.8-1.7,7.2L84.1,79.3z"/>
<path class="st2" d="M84.3,79.6V107l0,0v48.4c0,2.9,2.4,5.3,5.3,5.3s5.3-2.4,5.3-5.3v-40.6h2.5v40.6c0,2.9,2.4,5.3,5.3,5.3
	s5.3-2.4,5.3-5.3v-45.7l0,0V79.6l21.3-34.7c1.5-2.5,0.7-5.7-1.7-7.2c-2.5-1.5-5.7-0.7-7.2,1.7l-17.9,29.1H89.8L72,39.3
	c-1.5-2.5-4.8-3.3-7.2-1.7c-2.5,1.5-3.3,4.8-1.7,7.2L84.3,79.6z"/>
<circle class="st1" cx="96.2" cy="50.8" r="11.9"/>
<circle class="st2" cx="95.9" cy="50.8" r="11.9"/>
</svg>
