<svg xmlns="http://www.w3.org/2000/svg" xmlns:xlink="http://www.w3.org/1999/xlink" width="190" height="190" viewBox="0 0 190 190"><defs><path id="a" d="M162.349 148.996V31H33v117.996h129.349z"/></defs><g fill="none" fill-rule="evenodd"><circle cx="95" cy="95" r="95" fill="#FFF"/><mask id="b" fill="#fff"><use xlink:href="#a"/></mask><use stroke="#FFF" stroke-width="2" xlink:href="#a"/><path fill="#4F67AF" d="M87.3523 63.9875l-2.663-6.3245c-5.104-2.663-9.5423-3.3287-13.3148-1.9973-3.7726 1.3315-8.8766 5.8808-15.312 13.6478L45.0776 91.6158c-3.1068 7.767-4.4383 12.871-3.9945 15.312.4438 2.441.6658 8.322.6658 17.6422l3.3287 7.989 5.326 4.3273 10.6518 2.33 16.6435-4.3273 6.9903-5.6588 4.3273-6.9903V88.62l-1.6643-24.6325z" mask="url(#b)"/><path fill="#4F67AF" d="M148.3523 65.9875l-2.663-6.3245c-5.104-2.663-9.5423-3.3287-13.3148-1.9973-3.7726 1.3315-8.8766 5.8808-15.312 13.6478l-10.9848 22.3023c-3.1068 7.767-4.4383 12.871-3.9945 15.312.4438 2.441.6658 8.322.6658 17.6422l3.3287 7.989 5.326 4.3273 10.6518 2.33 16.6435-4.3273 6.9903-5.6588 4.3273-6.9903V90.62l-1.6643-24.6325z" mask="url(#b)" transform="matrix(-1 0 0 1 252.017 0)"/><path fill="#263357" stroke="#FFF" stroke-width="1.8" d="M73.149 86.9188l-12.4962 1.89c-1.5758.239-2.6622 1.722-2.4264 3.3132.2357 1.5914 1.7116 2.698 3.2835 2.4484l8.7424-1.321-2.6648 8.9637c-.087.2935-.114.5883-.109.879l-8.7987 2.0194c-1.5567.3568-2.5304 1.917-2.1768 3.4865.355 1.568 1.896 2.5543 3.454 2.195l7.3063-1.6768 1.736 4.372c.451 1.139 1.5347 1.8332 2.68 1.8332.3562 0 .72-.0686 1.0724-.2108 1.4822-.5985 2.1996-2.2933 1.6064-3.7877l-2.3393-5.8975c.5087-.362.9058-.8894 1.0993-1.537l3.7102-12.4762 19.6987-15.5037 19.6975 15.5037 3.7115 12.476c.1934.6478.5906 1.1752 1.0992 1.5372l-2.3445 5.896c-.5933 1.4932.1254 3.1893 1.604 3.789.3522.141.716.211 1.076.211 1.144 0 2.2266-.693 2.679-1.8307l1.741-4.3746 7.3075 1.6767c1.5566.3593 3.1017-.627 3.454-2.195.3536-1.5695-.62-3.1298-2.1767-3.4866l-8.8-2.0193c.0038-.2907-.022-.5855-.109-.879l-2.6647-8.9637 8.7425 1.321c1.577.2496 3.0466-.857 3.2836-2.4483.2358-1.5913-.8506-3.074-2.4277-3.3133l-12.4962-1.89L99.255 70.668V40.237c0-1.7878-1.4375-3.237-3.208-3.237-1.7718 0-3.208 1.4492-3.208 3.237v31.1858L73.149 86.9188zm80.7924 15.2736c-1.39-7.4578-10.996-28.7465-11.7096-29.7897-7.555-11.018-15.4877-20.6565-29.42-17.5553-5.815 1.2928-8.649 5.0313-8.9206 11.7652-.0653 1.608 1.1735 2.963 2.7673 3.0288 1.5693.119 2.939-1.184 3.0017-2.791.1857-4.5788 1.5642-5.6828 4.3943-6.3124 9.5124-2.1175 15.3364 3.4025 23.3346 15.0435 1.0545 2.1136 9.679 21.2616 10.8744 27.689 1.7718 9.5068.8263 19.4905-.519 25.15-2.511 10.545-10.3745 10.0808-27.7275 6.487-10.677-2.212-11.7763-9.9566-12.6847-22.4302l-.1652-2.1795c-.0307-.375-.0217-2.0192-.0115-3.8148.0193-3.7774.0487-9.3866-.1217-16.1333-.0384-1.5836-1.3234-2.6346-2.8838-2.6346h-.0743c-1.5938 0-2.8544 1.1726-2.8147 2.782.168 6.6563.1384 12.1104.1192 15.854-.0128 2.5894-.0167 3.758.0307 4.3514l.1626 2.1783c.8366 11.4885 1.7846 24.51 17.2826 27.7213 5.6408 1.1686 11.5763 2.398 16.9468 2.398 8.207 0 15.088-2.8712 17.5542-13.226 1.4822-6.2167 2.5212-17.1726.5842-27.5816zM92.7376 90.2928c-.1665 6.6576-.137 12.3146-.119 16.0583.0127 2.5894.0178 3.758-.0283 4.3514l-.1627 2.1783c-.838 11.4885-1.7872 24.51-17.2838 27.7213-5.6396 1.1686-11.579 2.398-16.9495 2.398-8.2056.0013-15.0853-2.8712-17.5515-13.226-1.481-6.2167-2.5213-17.17-.5855-27.5816 1.3913-7.4617 10.9973-28.7465 11.712-29.7884 7.5537-11.0205 15.47-20.659 29.4227-17.5566 5.992 1.3328 9.2396 5.719 8.9167 12.0354-.0858 1.6068-1.4374 2.8478-3.035 2.7573-1.5912-.0826-2.8146-1.453-2.734-3.0597.1794-3.4633-1.176-5.3274-4.3917-6.0436-9.511-2.115-15.339 3.4038-23.336 15.0435-1.053 2.1124-9.6814 21.259-10.8767 27.6877-1.7693 9.5067-.8263 19.4878.5214 25.146 2.515 10.55 10.3862 10.073 27.725 6.4806 10.677-2.2132 11.779-9.9696 12.6872-22.443l.165-2.2042c.0283-.3762.0206-2.071.009-3.8666-.0178-3.7773-.0473-9.49.1218-16.2354.0397-1.6107 1.2978-2.9293 2.9607-2.8388 1.5925.0414 2.8518 1.378 2.812 2.9862z" mask="url(#b)"/></g></svg>