<?xml version="1.0" encoding="UTF-8"?>
<svg width="190px" height="190px" viewBox="0 0 190 190" version="1.1" xmlns="http://www.w3.org/2000/svg" xmlns:xlink="http://www.w3.org/1999/xlink">
    <!-- Generator: Sketch 47.1 (45422) - http://www.bohemiancoding.com/sketch -->
    <title>Group 4</title>
    <desc>Created with Sketch.</desc>
    <defs></defs>
    <g id="Page-1" stroke="none" stroke-width="1" fill="none" fill-rule="evenodd">
        <g id="Assessment-Results-Icon-Copy" transform="translate(-628.000000, -716.000000)">
            <g id="Group-4" transform="translate(628.000000, 716.000000)">
                <circle id="Oval" fill="#FFFFFF" cx="95" cy="95" r="95"></circle>
                <path d="M68.288,105.336 C61.848,105.336 59.048,100.968 59.048,94.92 C59.048,88.872 62.38,84.364 68.708,84.364 C75.036,84.364 77.808,88.872 77.808,94.5 C77.808,101.08 74.644,105.336 68.288,105.336 Z M68.428,102.536 C71.956,102.536 74.448,100.24 74.448,94.78 C74.448,89.628 72.18,87.22 68.624,87.22 C64.984,87.22 62.436,89.684 62.436,94.864 C62.436,100.128 64.816,102.536 68.428,102.536 Z M89.26,102.032 C88.672,102.368 87.664,102.704 86.796,102.704 C85.228,102.704 84.864,101.948 84.864,100.52 L84.864,92.904 L88.784,92.904 L88.784,90.524 L84.864,90.524 L84.864,85.848 L81.644,86.296 L81.644,90.524 L79.432,90.524 L79.432,92.904 L81.644,92.904 L81.644,100.968 C81.644,104.048 83.1,105.336 85.956,105.336 C87.496,105.336 89.064,104.804 89.792,104.328 L89.26,102.032 Z M104.52,95.144 C104.52,91.868 103.176,90.216 100.068,90.216 C98.052,90.216 96.484,90.944 95.224,91.952 L95.224,83.86 L92.032,83.86 L92.032,105 L95.252,105 L95.252,94.444 C95.952,93.8 97.464,92.904 98.92,92.904 C100.628,92.904 101.3,93.856 101.3,95.676 L101.3,105 L104.52,105 L104.52,95.144 Z M114.404,105.336 C109.196,105.336 107.572,101.752 107.572,97.776 C107.572,92.54 110.708,90.216 114.488,90.216 C118.688,90.216 120.424,92.876 120.424,96.628 C120.424,97.216 120.396,97.888 120.34,98.56 L110.96,98.56 C111.044,101.612 112.5,102.704 114.6,102.704 C116.448,102.704 117.232,101.836 117.568,100.352 L120.312,101.024 C119.752,103.768 117.54,105.336 114.404,105.336 Z M111.016,96.32 L117.092,96.32 C117.092,93.856 116.224,92.764 114.292,92.764 C112.668,92.764 111.156,93.744 111.016,96.32 Z M131.96,90.244 C131.764,90.244 131.54,90.216 131.372,90.216 C129.244,90.216 127.788,91.056 126.64,92.68 L126.388,90.524 L123.672,90.524 L123.672,105 L126.892,105 L126.892,94.948 C128.096,93.884 130.14,93.24 131.96,93.464 L131.96,90.244 Z" id="Other" fill="#1A1A1A"></path>
            </g>
        </g>
    </g>
</svg>