<svg xmlns="http://www.w3.org/2000/svg" xmlns:xlink="http://www.w3.org/1999/xlink" width="190" height="190" viewBox="0 0 190 190"><defs><path id="a" d="M13.053.838v38.987H.853V.838z"/><path id="c" d="M16.11.027v17.911H.193V.027z"/></defs><g fill="none" fill-rule="evenodd"><circle cx="95" cy="95" r="95" fill="#FFF"/><path fill="#FEFEFE" d="M150.994 81.541h-4.1445c-.0048-.0023-1.306.029-1.3767-1.3763-.0012-.0337-.0024-2.8718-.0024-3.5636h-6.588c-.0012.1914-.0012.551-.0012.971-.0036 2.351-.0048 2.5927-.0072 2.6144-.1232 1.1815-1.6314 1.3475-1.696 1.3535l-4.1588.001-1.5238.0603c-.8552.1082-1.6015.605-2.0357 1.362l-10.5853 18.3355 3.6433 5.1145 10.657-17.23c.0347-.0553.1005-.0842.1627-.0673.0634.0156.1088.0698.1136.1347l.0778 1.1057v26.7274s.0047 16.1977.0047 17.9338h16.952c.0013-1.736.0072-17.9338.0072-17.9338v-4.7427c-.006-.072-.0083-.1455-.0083-.2177V90.9327c0-.0842.067-.1504.1495-.1504.0836 0 .1494.0662.1494.1504v5.39c.006.0156.0084.0325.0084.0493v15.957c.1052 1.3187 1.2032 2.357 2.5392 2.357 1.4042 0 2.5465-1.149 2.5465-2.5627v-26.393c0-4.141-4.684-4.1892-4.8836-4.1892"/><g transform="translate(143.843 75.817)"><mask id="b" fill="#fff"><use xlink:href="#a"/></mask><path fill="#263357" d="M9.461 39.8252c-1.9818 0-3.5953-1.623-3.5953-3.6166V15.018c0-.498.402-.9023.897-.9023.4952 0 .897.4042.897.9023v21.1906c0 .9986.8087 1.812 1.8014 1.812.9916 0 1.7978-.8134 1.7978-1.812V9.818c0-3.4-3.965-3.4384-4.1348-3.4384H2.9784c-.775.059-1.958-.4644-2.111-1.9347C.8528 4.3077.8528 2.0025.8528 1.7402c0-.498.4018-.9023.897-.9023.4952 0 .897.4042.897.9023 0 .0674.0024 2.3642.0096 2.5675.0048.0397.031.279.2895.2683l4.178-.001c2.0512 0 5.929 1.096 5.929 5.243v26.3906c0 1.9936-1.6112 3.6166-3.592 3.6166" mask="url(#b)"/></g><path fill="#263357" d="M142.1996 135.973c-.4952 0-.897-.404-.897-.9022v-23.3695c0-.498.4018-.9024.897-.9024.4952 0 .897.4042.897.9023v23.3695c0 .498-.4018.9023-.897.9023m8.4088 0c-.4952 0-.897-.404-.897-.9022l.006-38.796c0-.498.4018-.9023.897-.9023.4952 0 .897.4042.897.9023l-.006 38.796c0 .498-.4018.9023-.897.9023m-17.2508 0c-.4952 0-.897-.404-.897-.9022l-.0048-42.895-7.35 11.7822c-.263.4223-.817.5486-1.238.285-.4197-.2658-.5465-.8228-.2834-1.244l8.93-14.3135c.207-.331.6016-.492.9772-.3958.3767.0938.6494.4223.678.811l.078 1.1056.007 44.8645c0 .498-.4018.9023-.897.9023m-12.844-36.9678c-.1518 0-.306-.0385-.4472-.1215-.4282-.249-.5753-.8013-.3277-1.232l8.7876-15.3134c.5992-1.043 1.6302-1.7277 2.825-1.8793l1.6053-.0662 4.179-.0012c.091-.0156.641-.16.671-.4078-.0023-.1023.0012-2.3834.0012-2.428 0-.498.402-.9023.897-.9023.4953 0 .8972.4043.8972.9024 0 .7554-.0012 2.5252-.0144 2.637-.1686 1.4078-1.5633 1.918-2.361 1.9985l-5.728.0638c-.5574.0746-1.1017.4355-1.4186.9853l-8.7888 15.3134c-.165.2888-.4665.4512-.7775.4512"/><path fill="#FEFEFE" d="M149.041 70.4592c0-4.4383-3.165-8.0513-7.063-8.0513-3.8955 0-7.0616 3.613-7.0616 8.0512 0 4.4384 3.166 8.0538 7.0617 8.0538 3.898 0 7.063-3.6154 7.063-8.0538"/><path fill="#263357" d="M141.9777 63.3098c-3.3992 0-6.1634 3.2075-6.1634 7.149 0 3.9438 2.7642 7.1525 6.1634 7.1525 3.4005 0 6.1658-3.2087 6.1658-7.1525 0-3.9415-2.7653-7.149-6.1658-7.149m0 16.1062c-4.3884 0-7.9575-4.0184-7.9575-8.9572 0-4.9365 3.569-8.9537 7.9575-8.9537 4.3896 0 7.96 4.0173 7.96 8.9538 0 4.9388-3.5704 8.9572-7.96 8.9572"/><path fill="#FEFEFE" d="M40.902 81.541h4.1445c.0047-.0023 1.306.029 1.3766-1.3763.0013-.0337.0025-2.8718.0025-3.5636h6.588c.0012.1914.0012.551.0012.971.0036 2.351.0048 2.5927.0072 2.6144.123 1.1815 1.6314 1.3475 1.696 1.3535l4.1587.001 1.5238.0603c.8552.1082 1.6016.605 2.0357 1.362l10.5853 18.3355-3.6432 5.1145-10.657-17.23c-.0348-.0553-.1005-.0842-.1627-.0673-.0634.0156-.109.0698-.1137.1347l-.0778 1.1057v26.7274s-.0048 16.1977-.0048 17.9338h-16.952c-.0012-1.736-.0072-17.9338-.0072-17.9338v-4.7427c.006-.072.0084-.1455.0084-.2177V90.9327c0-.0842-.067-.1504-.1495-.1504-.0837 0-.1494.0662-.1494.1504v5.39c-.006.0156-.0084.0325-.0084.0493v15.957c-.1053 1.3187-1.2033 2.357-2.5393 2.357-1.4043 0-2.5465-1.149-2.5465-2.5627v-26.393c0-4.141 4.6838-4.1892 4.8835-4.1892"/><path fill="#263357" d="M38.5917 115.6422c-1.9807 0-3.5918-1.623-3.5918-3.6166V85.635c0-4.147 3.8776-5.243 5.9288-5.243h4.1456c.293-.006.3122-.1866.3254-.3177.0036-.1528.006-2.4496.006-2.517 0-.498.4018-.9023.897-.9023.4952 0 .897.4042.897.9023 0 .2623 0 2.5675-.0155 2.7083-.153 1.4666-1.391 1.9334-2.142 1.931h-4.1135c-.4198.0024-4.1348.1203-4.1348 3.4385v26.3906c0 .9986.8062 1.812 1.7977 1.812.9927 0 1.8013-.8134 1.8013-1.812V90.835c0-.498.402-.9023.897-.9023.4952 0 .897.4042.897.9023v21.1906c0 1.9936-1.6134 3.6166-3.5953 3.6166"/><path fill="#263357" d="M49.6963 135.973c-.495 0-.897-.404-.897-.9022v-23.3695c0-.498.402-.9024.897-.9024.4952 0 .897.4042.897.9023v23.3695c0 .498-.4018.9023-.897.9023m-8.4088 0c-.495 0-.897-.404-.897-.9022l-.006-38.796c0-.498.402-.9023.897-.9023.4952 0 .897.4042.897.9023l.006 38.796c0 .498-.4018.9023-.897.9023m17.2508 0c-.495 0-.897-.404-.897-.9022l.0048-44.7996.0802-1.1706c.0287-.3886.3014-.717.6782-.811.378-.095.7703.065.9772.396l8.93 14.3135c.263.4212.1363.9782-.2836 1.244-.4222.2636-.9748.1373-1.238-.285L59.438 92.1722l.0024 24.8144-.0048 18.0842c0 .498-.402.9023-.897.9023M71.382 99.0053c-.311 0-.6124-.1624-.7775-.4512L61.816 83.2406c-.317-.5498-.8612-.9107-1.495-.9913l-1.4522-.0542-4.1085.0013c-.8887-.0854-2.2833-.5955-2.4508-1.9935-.0143-.1216-.0155-1.8914-.0155-2.647 0-.498.402-.9023.897-.9023.4952 0 .897.4043.897.9024 0 .0444.0037 2.3255.0073 2.5048.024.1708.574.3152.762.3357l4.0462-.005 1.5645.0615c1.2714.1576 2.3024.8422 2.9017 1.8853l8.7876 15.3134c.2475.4307.1004.983-.3278 1.232-.141.083-.2954.1215-.4473.1215"/><path fill="#FEFEFE" d="M42.855 70.4592c0-4.4383 3.1648-8.0513 7.0628-8.0513 3.8957 0 7.0617 3.613 7.0617 8.0512 0 4.4384-3.166 8.0538-7.0617 8.0538-3.898 0-7.0628-3.6154-7.0628-8.0538"/><path fill="#263357" d="M49.9182 63.3098c-3.4004 0-6.1658 3.2075-6.1658 7.149 0 3.9438 2.7654 7.1525 6.1658 7.1525 3.3993 0 6.1634-3.2087 6.1634-7.1525 0-3.9415-2.764-7.149-6.1634-7.149m0 16.1062c-4.3896 0-7.96-4.0184-7.96-8.9572 0-4.9365 3.5704-8.9537 7.96-8.9537 4.3884 0 7.9575 4.0173 7.9575 8.9538 0 4.9388-3.569 8.9572-7.9575 8.9572"/><path fill="#4F67AF" d="M108.692 82.9627c-.4342-.7567-1.1806-1.2536-2.049-1.363l-1.5154-.059h-4.1384c-.08-.006-1.592-.1733-1.7116-1.3584-.0048-.042-.0072-2.885-.0072-3.5817l-6.5904.0626v.3934c-.0083 2.9284-.0107 3.1786-.0167 3.2123-.1866 1.1068-1.6255 1.2644-1.6865 1.2692l-4.1575.0012-1.5238.0602c-.854.1095-1.6016.6052-2.0358 1.362L70.4545 105.271c-.366.64-.463 1.386-.2715 2.1043.1902.7183.646 1.3163 1.281 1.6844.634.3694 1.3767.4668 2.0908.2743.714-.1925 1.3085-.6497 1.6745-1.2885l11.7455-18.865c.0322-.0554.098-.0842.1626-.0662.0622.0156.1077.0698.1124.136l.0802 1.1068v26.725s.0036 16.1437.0036 17.9183l17.2845.018c0-1.7397.005-17.9362.005-17.9362V90.367l.0788-1.1153c.0048-.0662.0503-.1204.1137-.136.061-.0204.128.0108.1626.0662l11.7408 18.8602c.7643 1.328 2.4544 1.784 3.769 1.019.6362-.367 1.0895-.9662 1.282-1.6845.1914-.7182.0946-1.4654-.2726-2.103L108.692 82.9627z"/><path fill="#4F67AF" d="M102.8412 70.1573c0-4.4384-3.166-8.0514-7.0628-8.0514-3.8957 0-7.0617 3.613-7.0617 8.0513s3.166 8.0537 7.0617 8.0537c3.8968 0 7.0628-3.6154 7.0628-8.0537"/><path fill="#263357" d="M95.8505 135.972c-.4952 0-.897-.4043-.897-.9024V111.7c0-.498.4018-.9023.897-.9023.4952 0 .897.4043.897.9024v23.3696c0 .498-.4018.9023-.897.9023"/><g transform="translate(87.627 61.176)"><mask id="d" fill="#fff"><use xlink:href="#c"/></mask><path fill="#263357" d="M8.1506 1.8316c-3.3993 0-6.1634 3.2075-6.1634 7.149 0 3.9438 2.764 7.1525 6.1634 7.1525 3.4004 0 6.1657-3.2086 6.1657-7.1525 0-3.9414-2.7653-7.149-6.1657-7.149m0 16.1063C3.762 17.9378.193 13.9194.193 8.9805.193 4.044 3.762.027 8.1506.027c4.3896 0 7.96 4.017 7.96 8.9535 0 4.939-3.5704 8.9573-7.96 8.9573" mask="url(#d)"/></g><path fill="#263357" d="M87.0084 135.972c-.4952 0-.897-.4043-.897-.9024l-.006-42.8902-10.162 16.324c-1.031 1.7987-3.3633 2.428-5.1802 1.3727-.8767-.51-1.5058-1.3365-1.769-2.3255-.263-.989-.1292-2.0212.378-2.902L82.1774 82.338c.5885-1.0287 1.6446-1.7313 2.824-1.8805l1.6063-.065 4.178-.001c.1147-.0206.6338-.171.6697-.3984-.0036-.065 0-1.3103.0024-1.9924l.0012-.4632c.0095-.498.4174-.8964.9138-.8855.494.0107.8875.4197.8803.9154l-.001.438c-.0073 2.1536-.0097 2.1668-.024 2.2606-.207 1.3524-1.5753 1.8456-2.3527 1.925l-5.7268.0638c-.5574.0734-1.1028.4355-1.4174.9854L70.926 105.551c-.268.4655-.3386 1.0093-.1975 1.5327.1388.5246.47.96.9318 1.2296.9652.5582 2.1924.2214 2.7462-.74l11.7574-18.889c.208-.3297.6028-.4945.977-.3958.377.0938.6496.4223.6783.811l.0777 1.1056.0084 44.8646c0 .498-.402.9023-.897.9023m17.5826.001c-.4952 0-.897-.404-.897-.9022l.0047-44.7996.08-1.1706c.0288-.3886.3015-.717.6783-.811.378-.095.7703.0663.9772.396l11.742 18.86c.2834.4934.7175.8266 1.2378.9662.524.1456 1.062.0698 1.5238-.1985.4617-.2683.793-.705.933-1.2284.14-.5235.0693-1.0685-.1974-1.533l-12.8052-22.3106c-.3158-.55-.86-.912-1.495-.9914l-1.452-.054-4.1087.001c-.8683-.0842-2.239-.5786-2.4424-1.9334-.007-.042-.0238-.148-.0238-2.7082 0-.498.402-.9023.897-.9023.4953 0 .897.4043.897.9024 0 .0553.0037 2.3136.012 2.5266.0264.1395.5455.29.7572.3152l4.0476-.0048 1.5632.0613c1.2547.154 2.311.8567 2.9017 1.8853l12.805 22.3108c.5073.882.64 1.913.377 2.902-.2644.989-.8924 1.8154-1.769 2.3243-.8756.509-1.902.6462-2.885.379-.9832-.2646-1.805-.8962-2.311-1.778l-10.1486-16.3.0024 24.8096-.0048 18.0842c0 .498-.402.9023-.897.9023"/></g></svg>