<svg xmlns="http://www.w3.org/2000/svg" width="190" height="190" viewBox="0 0 190 190"><g fill="none" fill-rule="evenodd"><circle cx="95" cy="95" r="95" fill="#FFF"/><path fill="#FFF" d="M144.4194 65.68v25.0396c0 2.5412-2.103 4.6004-4.6984 4.6004h-25.7735l-9.8923 8.6128c-1.0276.8938-2.6527.1794-2.6527-1.167V95.32H98.243c-2.6446 0-4.8066-2.117-4.8066-4.7065V65.68c0-2.585 2.1397-4.68 4.7796-4.68h41.4238c2.64 0 4.7796 2.095 4.7796 4.68"/><path stroke="#263357" stroke-width="2.989" d="M144.4194 65.68v25.0396c0 2.5412-2.103 4.6004-4.6984 4.6004h-25.7735l-9.8923 8.6128c-1.0276.8938-2.6527.1794-2.6527-1.167V95.32H98.243c-2.6446 0-4.8066-2.117-4.8066-4.7065V65.68c0-2.585 2.1397-4.68 4.7796-4.68h41.4238c2.64 0 4.7796 2.095 4.7796 4.68z"/><path fill="#4F67AF" d="M92.7703 112.7034c-1.8068 1.3073-5.315 5.0887-6.5498 6.9342-3.6118-1.3962-7.681-5.4647-11.3246-9.8-3.6406-4.3367-6.9322-9.0323-7.6332-12.7732 2.087-.8284 6.5545-3.4694 8.213-4.953.9608-6.0778-.94-14.6936-4.437-20.3065-3.7553-.813-12.7283-1.0874-19.066 1.5302-2.2514 7.7735-1.724 24.0864 14.103 43.6036 16.501 18.9743 32.7455 22.6325 40.9713 21.971 3.8477-5.5832 5.3055-14.2568 5.2163-18.0226-4.95-4.443-13.2158-7.9326-19.493-8.1838z"/><path stroke="#263357" stroke-width="2.989" d="M112.2593 120.8872c-4.95-4.443-13.2118-7.9326-19.489-8.1838-1.8068 1.3073-5.315 5.0887-6.5498 6.9342-3.6118-1.3962-7.681-5.4647-11.3246-9.8-3.6406-4.3367-6.9322-9.0323-7.6332-12.7732 2.087-.8284 6.5545-3.4694 8.213-4.953.9608-6.0778-.94-14.6936-4.437-20.3065-3.7553-.813-12.7283-1.0874-19.066 1.5302-2.2514 7.7735-1.724 24.0864 14.103 43.6036 16.501 18.9743 32.7455 22.6325 40.9713 21.971 3.8477-5.5832 5.3015-14.2568 5.2123-18.0226zM110.9618 78.16h3.1864m3.1865 0h3.1864m3.1866 0h3.1864"/></g></svg>