<svg xmlns="http://www.w3.org/2000/svg" width="190" height="190" viewBox="0 0 190 190"><g fill="none" fill-rule="evenodd"><circle cx="95" cy="95" r="95" fill="#FFF"/><path fill="#4F67AF" d="M127.517 46l-2.913 11.6757c7.5524-2.3784 13.055-1.081 16.5074 3.892.4315 1.2972-2.913 2.054-10.034 2.27 9.926 9.946 14.1338 15.1353 12.6234 15.5677-1.5105.4324-5.7183-.973-12.6233-4.2162 3.4255 7.3513 4.6595 13.6216 3.702 18.8108-1.8206-1.7297-8.557-8.4324-20.2093-20.108L99.6812 94c-2.1578-11.6757-.108-20 6.1498-24.973-.2158 1.7298-5.826 3.3514-16.831 4.865 5.3946-9.7298 11.976-13.838 19.744-12.3244-.6473-1.7298-4.5314-4.973-11.6522-9.7298 8.321-.6486 13.7157.4325 16.1837 3.2433 3.2367-2.5945 7.984-5.6215 14.2416-9.081zM76.2987 83.186c-4.5687-6.0826-7.7233-8.9067-9.4637-8.4722-1.7405.4345-1.7405 3.2585 0 8.4722-7.6835-1.8473-13.2278-.9748-16.6328 2.6176 1.346 1.3296 4.932 2.5208 10.7587 3.5737-2.5984 1.2758-4.482 2.394-5.6513 3.3546-1.169.9605-2.8716 2.7888-5.1075 5.4848h5.975l7.376-2.974c-4.0823 5.96-5.6736 11.923-4.7742 17.889 1.6496-.051 5.8255-4.5737 12.5278-13.5678l11.3714 12.2974c3.579-7.386 3.4106-12.4912-.5054-15.3153 5.862 4.0007 9.8868 5.4127 12.0744 4.2363-4.1336-8.6895-8.1584-12.4912-12.0744-11.405 1.686-2.1258 3.9425-4.7925 6.7693-8L76.2988 83.186z"/><path fill="#1E2946" d="M63.0752 141.2963c3.748-3.7037 12.3765-9.7334 28.839-9.7334 15.801 0 25.1265 5.9925 29.4084 9.7333H63.0752zm82.8896-61.4744c-1.266-6.341-6.2465-11.1075-9.8465-13.815l6.3056-1.3222c.6208-.1315 1.1346-.574 1.3545-1.1722.22-.6.1164-1.2704-.2735-1.774-5.1986-6.7316-11.7426-7.2557-16.2852-6.1483l2.0902-8.2852c.1608-.6314-.0222-1.3-.4824-1.761-.4583-.461-1.1236-.6463-1.7575-.489-5.9414 1.487-10.678 6.139-12.7848 8.5205-2.6686-1.776-8.6268-4.7574-16.7306-2.9778-.6893.152-1.2326.6833-1.399 1.3704-.168.687.0684 1.4093.6117 1.8612l7.8673 6.5704c-5.169 1.113-13.5704 4.337-17.6158 13.663-.2772.6408-.172 1.3834.2735 1.9204.4435.537 1.1514.7778 1.8314.626l7.749-1.7667c.9943-.2278 1.617-1.2167 1.3916-2.213-.2292-.9982-1.2216-1.6148-2.214-1.387l-3.685.8574c5.8232-8.152 16.226-8.5056 16.7194-8.5205.7688-.0203 1.447-.4518 1.6984-1.1796.2514-.7296.0297-1.413-.5617-1.9056l-7.7674-6.2352h.0442c6.594 0 10.645 3.2963 10.8408 3.4723.3862.352.9055.2723 1.4174.2223.5175-.0482.9906-.313 1.303-.7296.0443-.0575 3.7072-4.8704 8.806-7.4093l-2.0994 8.3185c-.181.7166.083 1.472.669 1.9222.5858.448 1.386.5055 2.031.1444.3105-.1722 6.921-3.7667 12.9956 1.5315l-7.4625 1.565c-.7613.1592-1.3397.7795-1.4488 1.55-.111.772.2735 1.5314.9592 1.898.0868.0464 7.555 4.1056 10.693 10.5038l-7.5532-2.5222c-.2605-.089-.521-.1074-.7743-.0796-.9038-1.5334-1.9923-2.8982-3.3506-3.9167-.8187-.6167-1.9756-.4482-2.5873.3703-.6117.8167-.4472 1.9778.3697 2.5908 4.0546 3.0482 5.3963 10.9112 5.718 16.5612L116.111 72.0478c-.3862-.413-.9406-.6315-1.5043-.5833-.5636.048-1.0755.35-1.3878.8222-3.6316 5.4945-9.0427 13.5575-12.2418 18.087-1.2954-13.6925 5.7827-18.7796 6.1393-19.024.841-.5686 1.0664-1.715.5027-2.563-.5674-.85-1.715-1.0815-2.5633-.513-.449.3-10.9647 7.5778-7.069 27.089.133.6704.6247 1.213 1.277 1.4093.6506.1963 1.3566.0204 1.8408-.463 1.4452-1.448 8.3144-11.639 12.432-17.815 1.484 8.3057 3.452 30.6558-12.8405 49.993-2.7-.389-5.6088-.6278-8.782-.6278-4.0787 0-7.675.3796-10.9202.976-.0184-.0168-.0276-.0408-.048-.0575-10.885-8.5056-9.7226-22.5483-9.1165-26.6316l8.76 9.9964c.4268.487 1.081.7204 1.713.6.6376-.113 1.168-.5537 1.401-1.1574.4822-1.2574 4.5424-12.3908-1.1995-16.3463-.839-.5778-1.9923-.365-2.5707.4777-.5766.8426-.364 1.9963.4768 2.574 1.9554 1.3483 1.5802 5.5557.7707 8.913l-8.926-10.185c-.3494-.4-.8502-.628-1.3788-.6316-.538-.0093-1.0332.2204-1.3843.6148-.0628.0685-4.8253 5.3797-8.8374 10.05C61.3973 99.2 64.6867 96.785 64.805 96.7c.8464-.5463 1.1033-1.6723.571-2.5315-.536-.8685-1.6743-1.1352-2.5447-.5982-.2698.1668-6.607 4.2724-5.9785 18.752.0332.7686.536 1.4334 1.264 1.678.1904.0628.3882.0943.5822.0943.5452 0 1.0737-.2407 1.4304-.6815 2.0107-2.461 5.132-6.0482 7.7083-8.974-.4546 6.0388.1164 17.1833 8.7025 25.4-13.67 3.8223-18.7172 11.9093-18.9833 12.3556-.3438.5723-.353 1.287-.024 1.8667.3288.5816.9424.939 1.6077.939h66.5304c.013-.002.0242 0 .037 0 1.0202 0 1.8482-.8296 1.8482-1.852 0-.537-.2292-1.022-.595-1.361-1.2697-1.6315-7.9505-9.3463-22.1104-12.5315 15.413-19.5205 14.1008-41.039 12.5336-50.402l16.1743 17.4092c.3567.3834.85.589 1.3528.589.2125 0 .427-.037.632-.113.6967-.252 1.1754-.9 1.2142-1.6426.026-.5092.414-8.889-1.9368-16.076l8.7468 2.9204c.1904.065.388.0963.584.0963.4435 0 .8815-.1592 1.2234-.4648.4935-.4353.717-1.1038.5896-1.75z"/><path fill="#1E2946" d="M57.657 96.8653c-.231-.9804-1.2318-1.589-2.216-1.3613-.048.009-.447.102-1.0304.2405 3.0155-3.4023 7.259-5.068 7.3144-5.088.7387-.2843 1.2114-1.0005 1.1763-1.7804-.035-.78-.5687-1.4524-1.3296-1.6692L55.4945 85.47c3.2482-.944 7.6192-1.5398 11.2995.31.6666.3352 1.4736.2386 2.0423-.2443.5688-.481.7848-1.2593.5485-1.961-.3897-1.1516-.8753-3.4533-1.2797-5.5836 2.1255 1.531 4.4172 3.6302 5.1152 5.817.24.7545.9455 1.2502 1.747 1.2502h.0147c.4652 0 .8992-.1458 1.2297-.4374.8402-.4155 4.467-1.58 8.3172-1.54-1.5476 1.3323-3.5567 3.0362-5.4495 4.6198-.5688.4738-.7885 1.2374-.565 1.939.2252.6998.8568 1.199 1.5973 1.2647.3305.031 7.176.74 10.4333 7.5665-.2972-.1002-.6166-.206-.962-.3226-.9713-.3207-2.0146.197-2.3396 1.1463-.325.953.194 1.9882 1.1615 2.309 1.8945.6268 4.0347 1.354 4.2693 1.447.2622.1293.5447.1913.8273.1913.4044 0 .8088-.1313 1.1393-.3882.563-.4356.8198-1.1536.661-1.8388-1.8595-8.053-7.3588-11.419-11.124-12.8057 6.6718-5.5964 6.622-5.7313 6.177-6.9814-.1995-.5595-.6612-.9786-1.2225-1.1463-3.3867-.9986-9.669-.583-13.2624.7235-2.7477-4.7163-9.1517-7.98-9.4564-8.1332-.6186-.3098-1.3628-.257-1.926.1512-.5614.401-.8458 1.0825-.7368 1.7605.0332.2095.6038 3.7048 1.2556 6.7318-7.7003-1.682-15.676 2.637-16.06 2.8466-.65.3608-1.0193 1.068-.9343 1.8005.085.729.6057 1.3377 1.3204 1.5418l6.8657 1.961c-2.6627 1.7348-5.8943 4.5285-7.4824 8.5358-.2585.6506-.1163 1.3905.3656 1.9026.482.512 1.2207.7052 1.8965.503 1.8263-.554 5.263-1.345 5.298-1.3522.9934-.2278 1.612-1.2083 1.3812-2.1887"/></g></svg>