<svg xmlns="http://www.w3.org/2000/svg" xmlns:xlink="http://www.w3.org/1999/xlink" width="190" height="190" viewBox="0 0 190 190"><defs><path id="a" d="M0 .23v44.351h101.441V.23H0z"/></defs><g fill="none" fill-rule="evenodd"><circle cx="95" cy="95" r="95" fill="#FFF"/><path fill="#4F67AF" d="M98.397 40L49 76.51V81h2.905l8.356-4.49 38.136-28.799L143.822 81H148v-4.49M122.841 110v5.948h1.184L127 131h-20v-5.239h3.248V110"/><path fill="#263357" d="M122.826 139.191h19.0173V82.042L98.7205 48.921 55.5968 82.042v57.149h17.183v-19.2605h-3.9625c-.7097 0-1.2857-.5776-1.2857-1.2892V97.2387c0-6.153 3.499-11.7537 8.8843-14.505-1.4735-1.73-2.2912-3.9236-2.2912-6.2528 0-5.3368 4.3285-9.6782 9.6505-9.6782 5.3212 0 9.6498 4.3414 9.6498 9.678 0 2.331-.8177 4.5245-2.2928 6.2538 3.006 1.5368 5.484 3.9864 7.051 6.9886 1.6267-.4882 3.4413-.3515 4.9704.367.2563-.3128.6746-.5002 1.0946-.4692.9283-.826 1.9543-1.535 3.053-2.1084-1.314-1.5892-2.04-3.5824-2.04-5.6994 0-4.9507 4.0167-8.9775 8.9547-8.9775 4.937 0 8.9528 4.0268 8.9528 8.9775 0 2.116-.726 4.1102-2.0392 5.7003 4.9037 2.5604 8.083 7.6925 8.083 13.329v14.8825c0 .7116-.576 1.2892-1.2858 1.2892h-1.9046l2.503 13.2596c.071.3773-.0284.7675-.2727 1.0623-.2443.2958-.6077.4668-.99.4668h-4.4366v7.3883zm20.303 2.5787h-21.5888c-.7097 0-1.2857-.5776-1.2857-1.2893v-9.9668c0-.7117.576-1.2893 1.2857-1.2893h4.17l-2.305-12.21h-.2896c-.7097 0-1.2857-.5777-1.2857-1.2893 0-.7117.576-1.2893 1.2856-1.2893h3.5255v-13.593c0-5.2052-3.2734-9.893-8.154-11.6867-.2245-.067-.4337-.197-.599-.3868-.445-.513-.4175-1.2832.0633-1.762.0395-.0395.0823-.0765.1278-.111.0018-.0016.0043-.0033.006-.005 1.597-1.224 2.5123-3.0753 2.5123-5.078 0-3.5282-2.862-6.399-6.3814-6.399-3.5195 0-6.3832 2.8708-6.3832 6.399 0 2.007.9188 3.86 2.5217 5.0848.545.417.6686 1.1887.281 1.7552-.18.263-.4396.4383-.725.5157-1.981.733-3.7543 1.9716-5.1377 3.5866-.0592.0773-.1286.1495-.2083.214-.4663.3833-1.1357.3876-1.609.012-1.3662-1.0855-3.276-1.2755-4.8222-.4658-.318.166-.6908.19-1.0268.0696-.336-.1203-.6077-.3765-.7483-.7065-1.488-3.4914-4.387-6.234-7.9526-7.5242-.443-.16-.7628-.5492-.8348-1.016-.072-.4667.1165-.935.4903-1.2213 1.7752-1.358 2.7926-3.413 2.7926-5.6366 0-3.9152-3.1748-7.0996-7.0783-7.0996-3.9034 0-7.079 3.1844-7.079 7.0995 0 2.2217 1.0173 4.2768 2.7908 5.6373.3738.2863.5623.7547.4903 1.2214-.072.466-.3917.8552-.8348 1.015-5.406 1.9563-9.0394 7.133-9.0394 12.884v20.1133h3.9626c.7097 0 1.2857.5776 1.2857 1.2893v21.839c0 .7118-.576 1.2894-1.2857 1.2894H54.311c-.7097 0-1.2857-.5776-1.2857-1.2893V81.4058c0-.4014.187-.7804.504-1.0237l44.4095-34.1084c.462-.355 1.1014-.355 1.5634 0l44.4094 34.1085c.3172.2434.5032.6224.5032 1.0238v59.0746c0 .7117-.5752 1.2893-1.2857 1.2893z"/><g transform="translate(48 38.63)"><mask id="b" fill="#fff"><use xlink:href="#a"/></mask><path fill="#000" d="M95.8635 41.7153c.8898.544 2.131.2545 2.6906-.629.288-.4522.3815-.9834.2667-1.5025-.115-.5192-.4226-.96-.8666-1.243-.0307-.0196-.0607-.0403-.089-.0626L51.7438 3.0824c-.617-.3765-1.4297-.3765-2.0468 0L3.5758 38.2782c-.0283.0215-.0583.043-.0883.062-.4448.2835-.7525.7253-.8674 1.2444-.1147.5192-.0213 1.0512.2624 1.4973.559.88 1.801 1.1774 2.6957.6325L49.9388 7.643c.462-.3542 1.1014-.3542 1.5634 0l44.3615 34.0723zm1.0235 2.8656c-.87 0-1.7186-.2493-2.4515-.7203-.03-.019-.059-.0396-.0882-.062l-43.627-33.5085L7.0936 43.7988c-.029.0223-.059.0438-.089.0627-.732.4702-1.579.7186-2.4464.7186-1.5685 0-3.0042-.7898-3.8433-2.1126-.6532-1.0245-.8692-2.2467-.6052-3.4406.2598-1.1732.9498-2.1762 1.9492-2.8303L48.1857.9955c.0267-.0207.055-.0413.085-.0593 1.4648-.942 3.4346-.942 4.8994 0 .03.018.0584.0386.085.0593l46.127 35.2c.9995.655 1.6904 1.6572 1.9493 2.8305.264 1.1938.048 2.4177-.6086 3.4448-.834 1.3194-2.2697 2.11-3.8357 2.11z" mask="url(#b)"/></g><path fill="#263357" d="M143.8635 80.3453c.8898.544 2.131.2545 2.6906-.629.288-.4522.3815-.9834.2667-1.5025-.115-.5192-.4226-.96-.8666-1.243-.0307-.0196-.0607-.0403-.089-.0626L99.7438 41.7124c-.617-.3765-1.4297-.3765-2.0468 0L51.5758 76.9082c-.0283.0215-.0583.043-.0883.062-.4448.2835-.7525.7253-.8674 1.2444-.1147.5192-.0213 1.0512.2624 1.4973.559.88 1.801 1.1774 2.6957.6325L97.9388 46.273c.462-.3542 1.1014-.3542 1.5634 0l44.3615 34.0723zm1.0235 2.8656c-.87 0-1.7186-.2493-2.4515-.7203-.03-.019-.059-.0396-.0882-.062l-43.627-33.5085-43.6268 33.5086c-.029.0223-.059.0438-.089.0627-.732.4702-1.579.7186-2.4464.7186-1.5685 0-3.0042-.7898-3.8433-2.1126-.6532-1.0245-.8692-2.2467-.6052-3.4406.2598-1.1732.9498-2.1762 1.9492-2.8303l46.127-35.201c.0267-.0207.055-.0413.085-.0593 1.4648-.942 3.4346-.942 4.8994 0 .03.018.0584.0386.085.0593l46.127 35.2c.9995.655 1.6904 1.6572 1.9493 2.8305.264 1.1938.048 2.4177-.6086 3.4448-.834 1.3194-2.2697 2.11-3.8357 2.11z"/><path fill="#263357" d="M83.7757 69.3816c-3.9043 0-7.08 3.1845-7.08 7.0995 0 3.9134 3.1757 7.0988 7.08 7.0988 3.9034 0 7.0783-3.1854 7.0783-7.0987 0-3.915-3.175-7.0994-7.0783-7.0994m0 16.7767c-5.322 0-9.6514-4.3414-9.6514-9.6772 0-5.3365 4.3294-9.678 9.6514-9.678 5.321 0 9.6497 4.3415 9.6497 9.678 0 5.336-4.3286 9.6773-9.6497 9.6773"/><path fill="#263357" d="M74.066 141.7705c-.7097 0-1.2857-.5776-1.2857-1.2892v-20.5508h-3.9625c-.7097 0-1.2857-.5776-1.2857-1.2892V97.2387c0-6.834 4.3158-12.9862 10.7383-15.3094.4098-.1487.87-.0774 1.2163.1882 1.249.9566 2.7317 1.462 4.2892 1.462 1.5565 0 3.0385-.5054 4.2848-1.4612.3472-.2664.8057-.3377 1.2172-.189 4.2343 1.5316 7.6774 4.7883 9.444 8.9336l-2.3632 1.0142c-1.4023-3.2876-4.055-5.9117-7.3388-7.2826-1.566 1.0254-3.3643 1.5634-5.244 1.5634-1.8815 0-3.6797-.539-5.2466-1.5634-5.0666 2.1135-8.4257 7.114-8.4257 12.644v20.1134h3.9626c.7098 0 1.2858.5776 1.2858 1.2893v20.5507H92.198v-13.4762h2.5715v14.7655c0 .7116-.576 1.2892-1.2857 1.2892H74.066z"/><path fill="#263357" d="M72.78 118.641h2.571V97.13H72.78M100.1853 92.0107c-2.4618 0-4.465 2.0078-4.465 4.4763s2.0032 4.4772 4.465 4.4772c2.4617 0 4.4648-2.0087 4.4648-4.4772 0-2.4685-2.003-4.4763-4.4647-4.4763m0 11.532c-3.8795 0-7.0363-3.1656-7.0363-7.0557 0-3.89 3.1568-7.0548 7.0363-7.0548 3.8794 0 7.0362 3.1647 7.0362 7.0548 0 3.89-3.1568 7.0557-7.0362 7.0557"/><path fill="#263357" d="M94.7963 139.192h10.776v-13.7237c0-.7117.576-1.2893 1.2857-1.2893h2.3237v-13.4228c0-3.5678-2.1274-6.8022-5.3545-8.2375-2.1977 1.3442-5.0855 1.3442-7.284 0-3.2272 1.4353-5.3546 4.6697-5.3546 8.2375v13.4228h2.322c.7097 0 1.2857.5776 1.2857 1.2893v13.7237zm12.0617 2.5785H93.5106c-.7097 0-1.2857-.5776-1.2857-1.2892v-13.7237h-2.322c-.7098 0-1.2858-.5776-1.2858-1.2893v-14.712c0-4.8666 3.0737-9.2475 7.6483-10.903.4088-.1478.87-.0764 1.2162.1883 1.5755 1.2067 3.8323 1.2067 5.407 0 .347-.2647.8073-.336 1.2162-.1882 4.5745 1.6554 7.6482 6.0363 7.6482 10.9028v14.712c0 .7118-.576 1.2894-1.2857 1.2894h-2.3238v13.7237c0 .7116-.576 1.2892-1.2857 1.2892z"/><path fill="#263357" d="M94.3677 126.7577H92.381v-2.5785h.701v-13.4985h2.5715v14.7878c0 .7116-.576 1.2892-1.2858 1.2892m13.227 0h-1.5616c-.7096 0-1.2856-.5776-1.2856-1.2892v-14.7878h2.5714v13.4985h.276v2.5785zM98.9 140.481h2.571v-18.874H98.9M114.216 75.414c-3.5195 0-6.3832 2.871-6.3832 6.399 0 3.5293 2.8637 6.4 6.383 6.4 3.5187 0 6.3815-2.8707 6.3815-6.4 0-3.528-2.8628-6.399-6.3814-6.399m0 15.3775c-4.938 0-8.9547-4.0276-8.9547-8.9784 0-4.9497 4.0166-8.9774 8.9546-8.9774 4.937 0 8.9528 4.0277 8.9528 8.9775 0 4.951-4.0157 8.9785-8.953 8.9785"/><path fill="#263357" d="M121.5402 141.7705H106.89v-2.5785h13.3645v-8.6784c0-.7117.576-1.2893 1.2857-1.2893h4.212l-2.3434-12.21h-.2932c-.7097 0-1.2857-.5777-1.2857-1.2893 0-.7117.576-1.2893 1.2856-1.2893h3.5255v-13.593c0-5.0075-3.0308-9.537-7.607-11.471-1.4427.9308-3.0935 1.419-4.818 1.419-1.7272 0-3.378-.4882-4.8198-1.418-1.793.757-3.395 1.9337-4.6637 3.43l-1.9594-1.67c1.7015-2.006 3.901-3.5367 6.3618-4.4246.4105-.1486.869-.0773 1.2163.1883 1.1238.8613 2.46 1.316 3.865 1.316 1.4022 0 2.7376-.4556 3.864-1.3168.347-.2648.803-.336 1.2162-.1874 5.9314 2.1437 9.9163 7.8233 9.9163 14.1346v14.8824c0 .7116-.576 1.2892-1.2857 1.2892h-1.9003l2.5448 13.256c.073.3783-.0265.7685-.2708 1.0642-.2434.2965-.6077.4684-.9917.4684h-4.483v8.6785c0 .7116-.576 1.2892-1.2856 1.2892"/><path fill="#263357" d="M121.83 115.725h2.571v-14.983h-2.571M106.89 131.803h14.935v-2.579H106.89"/><path fill="#263357" d="M110.468 110.577h12.648v-2.579h-12.648M112.9 140.481h2.572v-9.733H112.9"/><path fill="#263357" d="M49.287 141.771h98.867v-2.579H49.287"/><path fill="#263357" d="M82.456 140.48h2.572v-29.799h-2.572"/></g></svg>